<?xml version="1.0" encoding="us-ascii" standalone="no"?><svg xmlns="http://www.w3.org/2000/svg" xmlns:xlink="http://www.w3.org/1999/xlink" contentStyleType="text/css" height="894px" preserveAspectRatio="none" style="width:1062px;height:894px;background:#FFFFFF;" version="1.1" viewBox="0 0 1062 894" width="1062px" zoomAndPan="magnify"><defs/><g><rect fill="#FFFFFF" height="653.8263" style="stroke:#181818;stroke-width:1.0;" width="10" x="211.5" y="122.8419"/><rect fill="#FFFFFF" height="63.412" style="stroke:#181818;stroke-width:1.0;" width="10" x="415.5" y="154.5479"/><rect fill="#FFFFFF" height="317.0602" style="stroke:#181818;stroke-width:1.0;" width="10" x="415.5" y="427.902"/><rect fill="#FFFFFF" height="31.706" style="stroke:#181818;stroke-width:1.0;" width="10" x="580" y="186.2539"/><rect fill="#FFFFFF" height="31.706" style="stroke:#181818;stroke-width:1.0;" width="10" x="580" y="459.608"/><rect fill="#FFFFFF" height="63.412" style="stroke:#181818;stroke-width:1.0;" width="10" x="724.5" y="523.0201"/><rect fill="#FFFFFF" height="63.412" style="stroke:#181818;stroke-width:1.0;" width="10" x="872" y="618.1381"/><rect fill="none" height="100.8241" style="stroke:#000000;stroke-width:1.5;" width="290.5" x="10" y="296.3719"/><line style="stroke:#181818;stroke-width:0.5;stroke-dasharray:5.0,5.0;" x1="53" x2="53" y1="89.1358" y2="794.6682"/><line style="stroke:#181818;stroke-width:0.5;stroke-dasharray:5.0,5.0;" x1="216.5" x2="216.5" y1="89.1358" y2="794.6682"/><line style="stroke:#181818;stroke-width:0.5;stroke-dasharray:5.0,5.0;" x1="420.5" x2="420.5" y1="89.1358" y2="794.6682"/><line style="stroke:#181818;stroke-width:0.5;stroke-dasharray:5.0,5.0;" x1="584.5" x2="584.5" y1="89.1358" y2="794.6682"/><line style="stroke:#181818;stroke-width:0.5;stroke-dasharray:5.0,5.0;" x1="729.5" x2="729.5" y1="89.1358" y2="794.6682"/><line style="stroke:#181818;stroke-width:0.5;stroke-dasharray:5.0,5.0;" x1="876.5" x2="876.5" y1="89.1358" y2="794.6682"/><line style="stroke:#181818;stroke-width:0.5;stroke-dasharray:5.0,5.0;" x1="1007.5" x2="1007.5" y1="89.1358" y2="794.6682"/><text fill="#000000" font-family="FG Virgil" font-size="14" lengthAdjust="spacing" textLength="61" x="20" y="85.0339">Operator</text><ellipse cx="53.5" cy="18.5679" fill="#E3E3E3" rx="8" ry="8" style="stroke:#181818;stroke-width:0.5;"/><path d="M53.5,26.5679 L53.5,53.5679 M40.5,34.5679 L66.5,34.5679 M53.5,53.5679 L40.5,68.5679 M53.5,53.5679 L66.5,68.5679 " fill="none" style="stroke:#181818;stroke-width:0.5;"/><text fill="#000000" font-family="FG Virgil" font-size="14" lengthAdjust="spacing" textLength="61" x="20" y="808.6341">Operator</text><ellipse cx="53.5" cy="821.2361" fill="#E3E3E3" rx="8" ry="8" style="stroke:#181818;stroke-width:0.5;"/><path d="M53.5,829.2361 L53.5,856.2361 M40.5,837.2361 L66.5,837.2361 M53.5,856.2361 L40.5,871.2361 M53.5,856.2361 L66.5,871.2361 " fill="none" style="stroke:#181818;stroke-width:0.5;"/><rect fill="#E3E3E3" height="52.1358" rx="2.5" ry="2.5" style="stroke:#181818;stroke-width:0.5;" width="148" x="142.5" y="36"/><text fill="#000000" font-family="FG Virgil" font-size="14" font-style="italic" lengthAdjust="spacing" textLength="94" x="169.5" y="57.9659">&#171;presentation&#187;</text><text fill="#000000" font-family="FG Virgil" font-size="14" lengthAdjust="spacing" textLength="134" x="149.5" y="77.0339">OperatorMainMenu</text><rect fill="#E3E3E3" height="52.1358" rx="2.5" ry="2.5" style="stroke:#181818;stroke-width:0.5;" width="148" x="142.5" y="793.6682"/><text fill="#000000" font-family="FG Virgil" font-size="14" font-style="italic" lengthAdjust="spacing" textLength="94" x="169.5" y="815.6341">&#171;presentation&#187;</text><text fill="#000000" font-family="FG Virgil" font-size="14" lengthAdjust="spacing" textLength="134" x="149.5" y="834.702">OperatorMainMenu</text><rect fill="#E3E3E3" height="52.1358" rx="2.5" ry="2.5" style="stroke:#181818;stroke-width:0.5;" width="182" x="329.5" y="36"/><text fill="#000000" font-family="FG Virgil" font-size="14" font-style="italic" lengthAdjust="spacing" textLength="85" x="378" y="57.9659">&#171;application&#187;</text><text fill="#000000" font-family="FG Virgil" font-size="14" lengthAdjust="spacing" textLength="168" x="336.5" y="77.0339">DeactivateUserController</text><rect fill="#E3E3E3" height="52.1358" rx="2.5" ry="2.5" style="stroke:#181818;stroke-width:0.5;" width="182" x="329.5" y="793.6682"/><text fill="#000000" font-family="FG Virgil" font-size="14" font-style="italic" lengthAdjust="spacing" textLength="85" x="378" y="815.6341">&#171;application&#187;</text><text fill="#000000" font-family="FG Virgil" font-size="14" lengthAdjust="spacing" textLength="168" x="336.5" y="834.702">DeactivateUserController</text><rect fill="#E3E3E3" height="52.1358" rx="2.5" ry="2.5" style="stroke:#181818;stroke-width:0.5;" width="127" x="521.5" y="36"/><text fill="#000000" font-family="FG Virgil" font-size="14" font-style="italic" lengthAdjust="spacing" textLength="62" x="554" y="57.9659">&#171;domain&#187;</text><text fill="#000000" font-family="FG Virgil" font-size="14" lengthAdjust="spacing" textLength="113" x="528.5" y="77.0339">user:SystemUser</text><rect fill="#E3E3E3" height="52.1358" rx="2.5" ry="2.5" style="stroke:#181818;stroke-width:0.5;" width="127" x="521.5" y="793.6682"/><text fill="#000000" font-family="FG Virgil" font-size="14" font-style="italic" lengthAdjust="spacing" textLength="62" x="554" y="815.6341">&#171;domain&#187;</text><text fill="#000000" font-family="FG Virgil" font-size="14" lengthAdjust="spacing" textLength="113" x="528.5" y="834.702">user:SystemUser</text><rect fill="#E3E3E3" height="52.1358" rx="2.5" ry="2.5" style="stroke:#181818;stroke-width:0.5;" width="142" x="658.5" y="36"/><text fill="#000000" font-family="FG Virgil" font-size="14" font-style="italic" lengthAdjust="spacing" textLength="84" x="687.5" y="57.9659">&#171;persistence&#187;</text><text fill="#000000" font-family="FG Virgil" font-size="14" lengthAdjust="spacing" textLength="128" x="665.5" y="77.0339">PersistenceContext</text><rect fill="#E3E3E3" height="52.1358" rx="2.5" ry="2.5" style="stroke:#181818;stroke-width:0.5;" width="142" x="658.5" y="793.6682"/><text fill="#000000" font-family="FG Virgil" font-size="14" font-style="italic" lengthAdjust="spacing" textLength="84" x="687.5" y="815.6341">&#171;persistence&#187;</text><text fill="#000000" font-family="FG Virgil" font-size="14" lengthAdjust="spacing" textLength="128" x="665.5" y="834.702">PersistenceContext</text><rect fill="#E3E3E3" height="52.1358" rx="2.5" ry="2.5" style="stroke:#181818;stroke-width:0.5;" width="133" x="810.5" y="36"/><text fill="#000000" font-family="FG Virgil" font-size="14" font-style="italic" lengthAdjust="spacing" textLength="58" x="848" y="57.9659">&#171;factory&#187;</text><text fill="#000000" font-family="FG Virgil" font-size="14" lengthAdjust="spacing" textLength="119" x="817.5" y="77.0339">RepositoryFactory</text><rect fill="#E3E3E3" height="52.1358" rx="2.5" ry="2.5" style="stroke:#181818;stroke-width:0.5;" width="133" x="810.5" y="793.6682"/><text fill="#000000" font-family="FG Virgil" font-size="14" font-style="italic" lengthAdjust="spacing" textLength="58" x="848" y="815.6341">&#171;factory&#187;</text><text fill="#000000" font-family="FG Virgil" font-size="14" lengthAdjust="spacing" textLength="119" x="817.5" y="834.702">RepositoryFactory</text><text fill="#000000" font-family="FG Virgil" font-size="14" font-style="italic" lengthAdjust="spacing" textLength="79" x="965" y="65.9659">&#171;repository&#187;</text><text fill="#000000" font-family="FG Virgil" font-size="14" lengthAdjust="spacing" textLength="102" x="953.5" y="85.0339">UserRepository</text><path d="M989.5,15 C989.5,5 1007.5,5 1007.5,5 C1007.5,5 1025.5,5 1025.5,15 L1025.5,41 C1025.5,51 1007.5,51 1007.5,51 C1007.5,51 989.5,51 989.5,41 L989.5,15 " fill="#E3E3E3" style="stroke:#181818;stroke-width:1.5;"/><path d="M989.5,15 C989.5,25 1007.5,25 1007.5,25 C1007.5,25 1025.5,25 1025.5,15 " fill="none" style="stroke:#181818;stroke-width:1.5;"/><text fill="#000000" font-family="FG Virgil" font-size="14" font-style="italic" lengthAdjust="spacing" textLength="79" x="965" y="808.6341">&#171;repository&#187;</text><text fill="#000000" font-family="FG Virgil" font-size="14" lengthAdjust="spacing" textLength="102" x="953.5" y="827.702">UserRepository</text><path d="M989.5,841.804 C989.5,831.804 1007.5,831.804 1007.5,831.804 C1007.5,831.804 1025.5,831.804 1025.5,841.804 L1025.5,867.804 C1025.5,877.804 1007.5,877.804 1007.5,877.804 C1007.5,877.804 989.5,877.804 989.5,867.804 L989.5,841.804 " fill="#E3E3E3" style="stroke:#181818;stroke-width:1.5;"/><path d="M989.5,841.804 C989.5,851.804 1007.5,851.804 1007.5,851.804 C1007.5,851.804 1025.5,851.804 1025.5,841.804 " fill="none" style="stroke:#181818;stroke-width:1.5;"/><rect fill="#FFFFFF" height="653.8263" style="stroke:#181818;stroke-width:1.0;" width="10" x="211.5" y="122.8419"/><rect fill="#FFFFFF" height="63.412" style="stroke:#181818;stroke-width:1.0;" width="10" x="415.5" y="154.5479"/><rect fill="#FFFFFF" height="317.0602" style="stroke:#181818;stroke-width:1.0;" width="10" x="415.5" y="427.902"/><rect fill="#FFFFFF" height="31.706" style="stroke:#181818;stroke-width:1.0;" width="10" x="580" y="186.2539"/><rect fill="#FFFFFF" height="31.706" style="stroke:#181818;stroke-width:1.0;" width="10" x="580" y="459.608"/><rect fill="#FFFFFF" height="63.412" style="stroke:#181818;stroke-width:1.0;" width="10" x="724.5" y="523.0201"/><rect fill="#FFFFFF" height="63.412" style="stroke:#181818;stroke-width:1.0;" width="10" x="872" y="618.1381"/><polygon fill="#181818" points="199.5,118.8419,209.5,122.8419,199.5,126.8419,203.5,122.8419" style="stroke:#181818;stroke-width:1.0;"/><line style="stroke:#181818;stroke-width:1.0;stroke-dasharray:2.0,2.0;" x1="53.5" x2="205.5" y1="122.8419" y2="122.8419"/><text fill="#000000" font-family="FG Virgil" font-size="13" lengthAdjust="spacing" textLength="117" x="60.5" y="117.0328">Disable a Candidate</text><polygon fill="#181818" points="403.5,150.5479,413.5,154.5479,403.5,158.5479,407.5,154.5479" style="stroke:#181818;stroke-width:1.0;"/><line style="stroke:#181818;stroke-width:1.0;" x1="221.5" x2="409.5" y1="154.5479" y2="154.5479"/><text fill="#000000" font-family="FG Virgil" font-size="13" lengthAdjust="spacing" textLength="136" x="228.5" y="148.7389">deactivateUserAction()</text><polygon fill="#181818" points="568,182.2539,578,186.2539,568,190.2539,572,186.2539" style="stroke:#181818;stroke-width:1.0;"/><line style="stroke:#181818;stroke-width:1.0;" x1="425.5" x2="574" y1="186.2539" y2="186.2539"/><text fill="#000000" font-family="FG Virgil" font-size="13" lengthAdjust="spacing" textLength="77" x="432.5" y="180.4449">activeUsers()</text><polygon fill="#181818" points="431.5,213.9599,421.5,217.9599,431.5,221.9599,427.5,217.9599" style="stroke:#181818;stroke-width:1.0;"/><line style="stroke:#181818;stroke-width:1.0;" x1="425.5" x2="584" y1="217.9599" y2="217.9599"/><text fill="#000000" font-family="FG Virgil" font-size="13" lengthAdjust="spacing" textLength="105" x="437.5" y="212.1509">list of active users</text><polygon fill="#181818" points="64.5,245.6659,54.5,249.6659,64.5,253.6659,60.5,249.6659" style="stroke:#181818;stroke-width:1.0;"/><line style="stroke:#181818;stroke-width:1.0;stroke-dasharray:2.0,2.0;" x1="58.5" x2="210.5" y1="249.6659" y2="249.6659"/><text fill="#000000" font-family="FG Virgil" font-size="13" lengthAdjust="spacing" textLength="134" x="70.5" y="243.8569">Ask candidate number</text><polygon fill="#181818" points="199.5,277.3719,209.5,281.3719,199.5,285.3719,203.5,281.3719" style="stroke:#181818;stroke-width:1.0;"/><line style="stroke:#181818;stroke-width:1.0;stroke-dasharray:2.0,2.0;" x1="53.5" x2="205.5" y1="281.3719" y2="281.3719"/><text fill="#000000" font-family="FG Virgil" font-size="13" lengthAdjust="spacing" textLength="48" x="60.5" y="275.5629">number</text><path d="M10,296.3719 L83,296.3719 L83,306.0779 L73,316.0779 L10,316.0779 L10,296.3719 " fill="#EEEEEE" style="stroke:#000000;stroke-width:1.5;"/><rect fill="none" height="100.8241" style="stroke:#000000;stroke-width:1.5;" width="290.5" x="10" y="296.3719"/><text fill="#000000" font-family="FG Virgil" font-size="13" font-weight="bold" lengthAdjust="spacing" textLength="28" x="25" y="311.2689">loop</text><text fill="#000000" font-family="FG Virgil" font-size="11" font-weight="bold" lengthAdjust="spacing" textLength="65" x="98" y="310.1308">[option != 0]</text><polygon fill="#181818" points="64.5,353.49,54.5,357.49,64.5,361.49,60.5,357.49" style="stroke:#181818;stroke-width:1.0;"/><line style="stroke:#181818;stroke-width:1.0;stroke-dasharray:2.0,2.0;" x1="58.5" x2="210.5" y1="357.49" y2="357.49"/><text fill="#000000" font-family="FG Virgil" font-size="13" lengthAdjust="spacing" textLength="57" x="70.5" y="333.975">Show List</text><text fill="#000000" font-family="FG Virgil" font-size="13" lengthAdjust="spacing" textLength="88" x="70.5" y="351.681">of Active Users</text><polygon fill="#181818" points="199.5,385.196,209.5,389.196,199.5,393.196,203.5,389.196" style="stroke:#181818;stroke-width:1.0;"/><line style="stroke:#181818;stroke-width:1.0;stroke-dasharray:2.0,2.0;" x1="53.5" x2="205.5" y1="389.196" y2="389.196"/><text fill="#000000" font-family="FG Virgil" font-size="13" lengthAdjust="spacing" textLength="66" x="60.5" y="383.387">Select User</text><polygon fill="#181818" points="403.5,423.902,413.5,427.902,403.5,431.902,407.5,427.902" style="stroke:#181818;stroke-width:1.0;"/><line style="stroke:#181818;stroke-width:1.0;" x1="221.5" x2="409.5" y1="427.902" y2="427.902"/><text fill="#000000" font-family="FG Virgil" font-size="13" lengthAdjust="spacing" textLength="175" x="228.5" y="422.093">deactivateUser(selectedUser)</text><polygon fill="#181818" points="568,455.608,578,459.608,568,463.608,572,459.608" style="stroke:#181818;stroke-width:1.0;"/><line style="stroke:#181818;stroke-width:1.0;" x1="425.5" x2="574" y1="459.608" y2="459.608"/><text fill="#000000" font-family="FG Virgil" font-size="13" lengthAdjust="spacing" textLength="124" x="432.5" y="453.799">deactivateUser(user)</text><polygon fill="#181818" points="436.5,487.314,426.5,491.314,436.5,495.314,432.5,491.314" style="stroke:#181818;stroke-width:1.0;"/><line style="stroke:#181818;stroke-width:1.0;" x1="430.5" x2="584" y1="491.314" y2="491.314"/><text fill="#000000" font-family="FG Virgil" font-size="13" lengthAdjust="spacing" textLength="26" x="442.5" y="485.505">user</text><polygon fill="#181818" points="712.5,519.0201,722.5,523.0201,712.5,527.0201,716.5,523.0201" style="stroke:#181818;stroke-width:1.0;"/><line style="stroke:#181818;stroke-width:1.0;" x1="425.5" x2="718.5" y1="523.0201" y2="523.0201"/><text fill="#000000" font-family="FG Virgil" font-size="13" lengthAdjust="spacing" textLength="79" x="432.5" y="517.2111">repositories()</text><polygon fill="#181818" points="865,550.7261,875,554.7261,865,558.7261,869,554.7261" style="stroke:#181818;stroke-width:1.0;"/><line style="stroke:#181818;stroke-width:1.0;" x1="734.5" x2="871" y1="554.7261" y2="554.7261"/><text fill="#000000" font-family="FG Virgil" font-size="13" lengthAdjust="spacing" textLength="37" x="741.5" y="548.9171">create</text><polygon fill="#181818" points="436.5,582.4321,426.5,586.4321,436.5,590.4321,432.5,586.4321" style="stroke:#181818;stroke-width:1.0;"/><line style="stroke:#181818;stroke-width:1.0;" x1="430.5" x2="728.5" y1="586.4321" y2="586.4321"/><text fill="#000000" font-family="FG Virgil" font-size="13" lengthAdjust="spacing" textLength="42" x="442.5" y="580.6231">factory</text><polygon fill="#181818" points="860,614.1381,870,618.1381,860,622.1381,864,618.1381" style="stroke:#181818;stroke-width:1.0;"/><line style="stroke:#181818;stroke-width:1.0;" x1="425.5" x2="866" y1="618.1381" y2="618.1381"/><text fill="#000000" font-family="FG Virgil" font-size="13" lengthAdjust="spacing" textLength="40" x="432.5" y="612.3291">users()</text><polygon fill="#181818" points="995.5,645.8441,1005.5,649.8441,995.5,653.8441,999.5,649.8441" style="stroke:#181818;stroke-width:1.0;"/><line style="stroke:#181818;stroke-width:1.0;" x1="882" x2="1001.5" y1="649.8441" y2="649.8441"/><text fill="#000000" font-family="FG Virgil" font-size="13" lengthAdjust="spacing" textLength="37" x="889" y="644.0351">create</text><polygon fill="#181818" points="436.5,677.5501,426.5,681.5501,436.5,685.5501,432.5,681.5501" style="stroke:#181818;stroke-width:1.0;"/><line style="stroke:#181818;stroke-width:1.0;" x1="430.5" x2="876" y1="681.5501" y2="681.5501"/><text fill="#000000" font-family="FG Virgil" font-size="13" lengthAdjust="spacing" textLength="91" x="442.5" y="675.7411">userRepository</text><polygon fill="#181818" points="995.5,709.2562,1005.5,713.2562,995.5,717.2562,999.5,713.2562" style="stroke:#181818;stroke-width:1.0;"/><line style="stroke:#181818;stroke-width:1.0;" x1="425.5" x2="1001.5" y1="713.2562" y2="713.2562"/><text fill="#000000" font-family="FG Virgil" font-size="13" lengthAdjust="spacing" textLength="61" x="432.5" y="707.4472">save(user)</text><polygon fill="#181818" points="232.5,740.9622,222.5,744.9622,232.5,748.9622,228.5,744.9622" style="stroke:#181818;stroke-width:1.0;"/><line style="stroke:#181818;stroke-width:1.0;" x1="226.5" x2="419.5" y1="744.9622" y2="744.9622"/><text fill="#000000" font-family="FG Virgil" font-size="13" lengthAdjust="spacing" textLength="26" x="238.5" y="739.1532">user</text><polygon fill="#181818" points="64.5,772.6682,54.5,776.6682,64.5,780.6682,60.5,776.6682" style="stroke:#181818;stroke-width:1.0;"/><line style="stroke:#181818;stroke-width:1.0;stroke-dasharray:2.0,2.0;" x1="58.5" x2="215.5" y1="776.6682" y2="776.6682"/><text fill="#000000" font-family="FG Virgil" font-size="13" lengthAdjust="spacing" textLength="94" x="70.5" y="770.8592">displayUserInfo</text><!--SRC=[dLHDZzem4BtdLqptj3sir7EK8g55L4ZTjYgYfrw6P00BnxPiPod_lcCJ72U5QjkS_F7Uc-StTjnHA8CMMpYWQavMU4yATYWT5IxjjLhf-c1rI-1jb-yOh8-ufxK_Im9BjS_s6jfX9_rIA_y5cRhy13-4tGkPOTm16tqIQj_NBB3ssi9NGnR301tCmqh1S2zgOL3vjFk2GhsGwW9giuAgCfOSAOzUQ3MRZJWBOcNnYfusZkmpUx9QIeeLibbLeJ5IrBSa7ZfcbkkpyzG6aOV0NUYMNJ2lYOC9vHjP9nYlQWf5w9SFd6mrc1vc4_PtCje9FkXv6MCv1_9rM5MxouX93NhSeYC8jWPMW6Upgh9fmgGY1WjFJpCEhuI5SBZb9Y8yyqqGB4d5DJ865C0VXype8QwIUvp7oeeSs-Fx24xa0H_NmvSbpeAN3CiB8mgvNcEaSu6bzJxvYI79KOBUzLeGMkOIPN2RYsMhcTLqO2uGaofXxevGNyC1rRNR_aZZ9FkDk2ErDg1DY0NUVOGFoSfOUNtG9_ZCrdygzZw_UD-Cl8zhh4doOukGY23L56zgqQEBJ6h2v7yRDP7iajI_zwjpMRK_-tF7IFQ2IaYtMj3DUvE1qsRuycV8clt3Ag6s52x_Nw3v0VfNUEiCUU4x1qb5ktktVZdH3z_r7y02m_k-QJn3JbCVcBUyNylUyPsNTVXAapim1eSBc_hyvjVM26SadiCDMwcTBZBYPlKR]--></g></svg>