<?xml version="1.0" encoding="us-ascii" standalone="no"?><svg xmlns="http://www.w3.org/2000/svg" xmlns:xlink="http://www.w3.org/1999/xlink" contentStyleType="text/css" height="894px" preserveAspectRatio="none" style="width:1057px;height:894px;background:#FFFFFF;" version="1.1" viewBox="0 0 1057 894" width="1057px" zoomAndPan="magnify"><defs/><g><rect fill="#FFFFFF" height="653.8263" style="stroke:#181818;stroke-width:1.0;" width="10" x="211.5" y="122.8419"/><rect fill="#FFFFFF" height="63.412" style="stroke:#181818;stroke-width:1.0;" width="10" x="400.5" y="154.5479"/><rect fill="#FFFFFF" height="317.0602" style="stroke:#181818;stroke-width:1.0;" width="10" x="400.5" y="427.902"/><rect fill="#FFFFFF" height="31.706" style="stroke:#181818;stroke-width:1.0;" width="10" x="574.5" y="186.2539"/><rect fill="#FFFFFF" height="31.706" style="stroke:#181818;stroke-width:1.0;" width="10" x="574.5" y="459.608"/><rect fill="#FFFFFF" height="63.412" style="stroke:#181818;stroke-width:1.0;" width="10" x="719" y="523.0201"/><rect fill="#FFFFFF" height="63.412" style="stroke:#181818;stroke-width:1.0;" width="10" x="866.5" y="618.1381"/><rect fill="none" height="100.8241" style="stroke:#000000;stroke-width:1.5;" width="290.5" x="10" y="296.3719"/><line style="stroke:#181818;stroke-width:0.5;stroke-dasharray:5.0,5.0;" x1="53" x2="53" y1="89.1358" y2="794.6682"/><line style="stroke:#181818;stroke-width:0.5;stroke-dasharray:5.0,5.0;" x1="216.5" x2="216.5" y1="89.1358" y2="794.6682"/><line style="stroke:#181818;stroke-width:0.5;stroke-dasharray:5.0,5.0;" x1="405" x2="405" y1="89.1358" y2="794.6682"/><line style="stroke:#181818;stroke-width:0.5;stroke-dasharray:5.0,5.0;" x1="579" x2="579" y1="89.1358" y2="794.6682"/><line style="stroke:#181818;stroke-width:0.5;stroke-dasharray:5.0,5.0;" x1="724" x2="724" y1="89.1358" y2="794.6682"/><line style="stroke:#181818;stroke-width:0.5;stroke-dasharray:5.0,5.0;" x1="871" x2="871" y1="89.1358" y2="794.6682"/><line style="stroke:#181818;stroke-width:0.5;stroke-dasharray:5.0,5.0;" x1="1002" x2="1002" y1="89.1358" y2="794.6682"/><text fill="#000000" font-family="FG Virgil" font-size="14" lengthAdjust="spacing" textLength="61" x="20" y="85.0339">Operator</text><ellipse cx="53.5" cy="18.5679" fill="#E3E3E3" rx="8" ry="8" style="stroke:#181818;stroke-width:0.5;"/><path d="M53.5,26.5679 L53.5,53.5679 M40.5,34.5679 L66.5,34.5679 M53.5,53.5679 L40.5,68.5679 M53.5,53.5679 L66.5,68.5679 " fill="none" style="stroke:#181818;stroke-width:0.5;"/><text fill="#000000" font-family="FG Virgil" font-size="14" lengthAdjust="spacing" textLength="61" x="20" y="808.6341">Operator</text><ellipse cx="53.5" cy="821.2361" fill="#E3E3E3" rx="8" ry="8" style="stroke:#181818;stroke-width:0.5;"/><path d="M53.5,829.2361 L53.5,856.2361 M40.5,837.2361 L66.5,837.2361 M53.5,856.2361 L40.5,871.2361 M53.5,856.2361 L66.5,871.2361 " fill="none" style="stroke:#181818;stroke-width:0.5;"/><rect fill="#E3E3E3" height="52.1358" rx="2.5" ry="2.5" style="stroke:#181818;stroke-width:0.5;" width="148" x="142.5" y="36"/><text fill="#000000" font-family="FG Virgil" font-size="14" font-style="italic" lengthAdjust="spacing" textLength="94" x="169.5" y="57.9659">&#171;presentation&#187;</text><text fill="#000000" font-family="FG Virgil" font-size="14" lengthAdjust="spacing" textLength="134" x="149.5" y="77.0339">OperatorMainMenu</text><rect fill="#E3E3E3" height="52.1358" rx="2.5" ry="2.5" style="stroke:#181818;stroke-width:0.5;" width="148" x="142.5" y="793.6682"/><text fill="#000000" font-family="FG Virgil" font-size="14" font-style="italic" lengthAdjust="spacing" textLength="94" x="169.5" y="815.6341">&#171;presentation&#187;</text><text fill="#000000" font-family="FG Virgil" font-size="14" lengthAdjust="spacing" textLength="134" x="149.5" y="834.702">OperatorMainMenu</text><rect fill="#E3E3E3" height="52.1358" rx="2.5" ry="2.5" style="stroke:#181818;stroke-width:0.5;" width="165" x="323" y="36"/><text fill="#000000" font-family="FG Virgil" font-size="14" font-style="italic" lengthAdjust="spacing" textLength="85" x="363" y="57.9659">&#171;application&#187;</text><text fill="#000000" font-family="FG Virgil" font-size="14" lengthAdjust="spacing" textLength="151" x="330" y="77.0339">ActivateUserController</text><rect fill="#E3E3E3" height="52.1358" rx="2.5" ry="2.5" style="stroke:#181818;stroke-width:0.5;" width="165" x="323" y="793.6682"/><text fill="#000000" font-family="FG Virgil" font-size="14" font-style="italic" lengthAdjust="spacing" textLength="85" x="363" y="815.6341">&#171;application&#187;</text><text fill="#000000" font-family="FG Virgil" font-size="14" lengthAdjust="spacing" textLength="151" x="330" y="834.702">ActivateUserController</text><rect fill="#E3E3E3" height="52.1358" rx="2.5" ry="2.5" style="stroke:#181818;stroke-width:0.5;" width="127" x="516" y="36"/><text fill="#000000" font-family="FG Virgil" font-size="14" font-style="italic" lengthAdjust="spacing" textLength="62" x="548.5" y="57.9659">&#171;domain&#187;</text><text fill="#000000" font-family="FG Virgil" font-size="14" lengthAdjust="spacing" textLength="113" x="523" y="77.0339">user:SystemUser</text><rect fill="#E3E3E3" height="52.1358" rx="2.5" ry="2.5" style="stroke:#181818;stroke-width:0.5;" width="127" x="516" y="793.6682"/><text fill="#000000" font-family="FG Virgil" font-size="14" font-style="italic" lengthAdjust="spacing" textLength="62" x="548.5" y="815.6341">&#171;domain&#187;</text><text fill="#000000" font-family="FG Virgil" font-size="14" lengthAdjust="spacing" textLength="113" x="523" y="834.702">user:SystemUser</text><rect fill="#E3E3E3" height="52.1358" rx="2.5" ry="2.5" style="stroke:#181818;stroke-width:0.5;" width="142" x="653" y="36"/><text fill="#000000" font-family="FG Virgil" font-size="14" font-style="italic" lengthAdjust="spacing" textLength="84" x="682" y="57.9659">&#171;persistence&#187;</text><text fill="#000000" font-family="FG Virgil" font-size="14" lengthAdjust="spacing" textLength="128" x="660" y="77.0339">PersistenceContext</text><rect fill="#E3E3E3" height="52.1358" rx="2.5" ry="2.5" style="stroke:#181818;stroke-width:0.5;" width="142" x="653" y="793.6682"/><text fill="#000000" font-family="FG Virgil" font-size="14" font-style="italic" lengthAdjust="spacing" textLength="84" x="682" y="815.6341">&#171;persistence&#187;</text><text fill="#000000" font-family="FG Virgil" font-size="14" lengthAdjust="spacing" textLength="128" x="660" y="834.702">PersistenceContext</text><rect fill="#E3E3E3" height="52.1358" rx="2.5" ry="2.5" style="stroke:#181818;stroke-width:0.5;" width="133" x="805" y="36"/><text fill="#000000" font-family="FG Virgil" font-size="14" font-style="italic" lengthAdjust="spacing" textLength="58" x="842.5" y="57.9659">&#171;factory&#187;</text><text fill="#000000" font-family="FG Virgil" font-size="14" lengthAdjust="spacing" textLength="119" x="812" y="77.0339">RepositoryFactory</text><rect fill="#E3E3E3" height="52.1358" rx="2.5" ry="2.5" style="stroke:#181818;stroke-width:0.5;" width="133" x="805" y="793.6682"/><text fill="#000000" font-family="FG Virgil" font-size="14" font-style="italic" lengthAdjust="spacing" textLength="58" x="842.5" y="815.6341">&#171;factory&#187;</text><text fill="#000000" font-family="FG Virgil" font-size="14" lengthAdjust="spacing" textLength="119" x="812" y="834.702">RepositoryFactory</text><text fill="#000000" font-family="FG Virgil" font-size="14" font-style="italic" lengthAdjust="spacing" textLength="79" x="959.5" y="65.9659">&#171;repository&#187;</text><text fill="#000000" font-family="FG Virgil" font-size="14" lengthAdjust="spacing" textLength="102" x="948" y="85.0339">UserRepository</text><path d="M984,15 C984,5 1002,5 1002,5 C1002,5 1020,5 1020,15 L1020,41 C1020,51 1002,51 1002,51 C1002,51 984,51 984,41 L984,15 " fill="#E3E3E3" style="stroke:#181818;stroke-width:1.5;"/><path d="M984,15 C984,25 1002,25 1002,25 C1002,25 1020,25 1020,15 " fill="none" style="stroke:#181818;stroke-width:1.5;"/><text fill="#000000" font-family="FG Virgil" font-size="14" font-style="italic" lengthAdjust="spacing" textLength="79" x="959.5" y="808.6341">&#171;repository&#187;</text><text fill="#000000" font-family="FG Virgil" font-size="14" lengthAdjust="spacing" textLength="102" x="948" y="827.702">UserRepository</text><path d="M984,841.804 C984,831.804 1002,831.804 1002,831.804 C1002,831.804 1020,831.804 1020,841.804 L1020,867.804 C1020,877.804 1002,877.804 1002,877.804 C1002,877.804 984,877.804 984,867.804 L984,841.804 " fill="#E3E3E3" style="stroke:#181818;stroke-width:1.5;"/><path d="M984,841.804 C984,851.804 1002,851.804 1002,851.804 C1002,851.804 1020,851.804 1020,841.804 " fill="none" style="stroke:#181818;stroke-width:1.5;"/><rect fill="#FFFFFF" height="653.8263" style="stroke:#181818;stroke-width:1.0;" width="10" x="211.5" y="122.8419"/><rect fill="#FFFFFF" height="63.412" style="stroke:#181818;stroke-width:1.0;" width="10" x="400.5" y="154.5479"/><rect fill="#FFFFFF" height="317.0602" style="stroke:#181818;stroke-width:1.0;" width="10" x="400.5" y="427.902"/><rect fill="#FFFFFF" height="31.706" style="stroke:#181818;stroke-width:1.0;" width="10" x="574.5" y="186.2539"/><rect fill="#FFFFFF" height="31.706" style="stroke:#181818;stroke-width:1.0;" width="10" x="574.5" y="459.608"/><rect fill="#FFFFFF" height="63.412" style="stroke:#181818;stroke-width:1.0;" width="10" x="719" y="523.0201"/><rect fill="#FFFFFF" height="63.412" style="stroke:#181818;stroke-width:1.0;" width="10" x="866.5" y="618.1381"/><polygon fill="#181818" points="199.5,118.8419,209.5,122.8419,199.5,126.8419,203.5,122.8419" style="stroke:#181818;stroke-width:1.0;"/><line style="stroke:#181818;stroke-width:1.0;stroke-dasharray:2.0,2.0;" x1="53.5" x2="205.5" y1="122.8419" y2="122.8419"/><text fill="#000000" font-family="FG Virgil" font-size="13" lengthAdjust="spacing" textLength="114" x="60.5" y="117.0328">Enable a Candidate</text><polygon fill="#181818" points="388.5,150.5479,398.5,154.5479,388.5,158.5479,392.5,154.5479" style="stroke:#181818;stroke-width:1.0;"/><line style="stroke:#181818;stroke-width:1.0;" x1="221.5" x2="394.5" y1="154.5479" y2="154.5479"/><text fill="#000000" font-family="FG Virgil" font-size="13" lengthAdjust="spacing" textLength="121" x="228.5" y="148.7389">activateUserAction()</text><polygon fill="#181818" points="562.5,182.2539,572.5,186.2539,562.5,190.2539,566.5,186.2539" style="stroke:#181818;stroke-width:1.0;"/><line style="stroke:#181818;stroke-width:1.0;" x1="410.5" x2="568.5" y1="186.2539" y2="186.2539"/><text fill="#000000" font-family="FG Virgil" font-size="13" lengthAdjust="spacing" textLength="112" x="417.5" y="180.4449">deactivatedUsers()</text><polygon fill="#181818" points="416.5,213.9599,406.5,217.9599,416.5,221.9599,412.5,217.9599" style="stroke:#181818;stroke-width:1.0;"/><line style="stroke:#181818;stroke-width:1.0;" x1="410.5" x2="578.5" y1="217.9599" y2="217.9599"/><text fill="#000000" font-family="FG Virgil" font-size="13" lengthAdjust="spacing" textLength="140" x="422.5" y="212.1509">list of deactivated users</text><polygon fill="#181818" points="64.5,245.6659,54.5,249.6659,64.5,253.6659,60.5,249.6659" style="stroke:#181818;stroke-width:1.0;"/><line style="stroke:#181818;stroke-width:1.0;stroke-dasharray:2.0,2.0;" x1="58.5" x2="210.5" y1="249.6659" y2="249.6659"/><text fill="#000000" font-family="FG Virgil" font-size="13" lengthAdjust="spacing" textLength="134" x="70.5" y="243.8569">Ask candidate number</text><polygon fill="#181818" points="199.5,277.3719,209.5,281.3719,199.5,285.3719,203.5,281.3719" style="stroke:#181818;stroke-width:1.0;"/><line style="stroke:#181818;stroke-width:1.0;stroke-dasharray:2.0,2.0;" x1="53.5" x2="205.5" y1="281.3719" y2="281.3719"/><text fill="#000000" font-family="FG Virgil" font-size="13" lengthAdjust="spacing" textLength="48" x="60.5" y="275.5629">number</text><path d="M10,296.3719 L83,296.3719 L83,306.0779 L73,316.0779 L10,316.0779 L10,296.3719 " fill="#EEEEEE" style="stroke:#000000;stroke-width:1.5;"/><rect fill="none" height="100.8241" style="stroke:#000000;stroke-width:1.5;" width="290.5" x="10" y="296.3719"/><text fill="#000000" font-family="FG Virgil" font-size="13" font-weight="bold" lengthAdjust="spacing" textLength="28" x="25" y="311.2689">loop</text><text fill="#000000" font-family="FG Virgil" font-size="11" font-weight="bold" lengthAdjust="spacing" textLength="65" x="98" y="310.1308">[option != 0]</text><polygon fill="#181818" points="64.5,353.49,54.5,357.49,64.5,361.49,60.5,357.49" style="stroke:#181818;stroke-width:1.0;"/><line style="stroke:#181818;stroke-width:1.0;stroke-dasharray:2.0,2.0;" x1="58.5" x2="210.5" y1="357.49" y2="357.49"/><text fill="#000000" font-family="FG Virgil" font-size="13" lengthAdjust="spacing" textLength="57" x="70.5" y="333.975">Show List</text><text fill="#000000" font-family="FG Virgil" font-size="13" lengthAdjust="spacing" textLength="123" x="70.5" y="351.681">of Deactivated Users</text><polygon fill="#181818" points="199.5,385.196,209.5,389.196,199.5,393.196,203.5,389.196" style="stroke:#181818;stroke-width:1.0;"/><line style="stroke:#181818;stroke-width:1.0;stroke-dasharray:2.0,2.0;" x1="53.5" x2="205.5" y1="389.196" y2="389.196"/><text fill="#000000" font-family="FG Virgil" font-size="13" lengthAdjust="spacing" textLength="66" x="60.5" y="383.387">Select User</text><polygon fill="#181818" points="388.5,423.902,398.5,427.902,388.5,431.902,392.5,427.902" style="stroke:#181818;stroke-width:1.0;"/><line style="stroke:#181818;stroke-width:1.0;" x1="221.5" x2="394.5" y1="427.902" y2="427.902"/><text fill="#000000" font-family="FG Virgil" font-size="13" lengthAdjust="spacing" textLength="160" x="228.5" y="422.093">activateUser(selectedUser)</text><polygon fill="#181818" points="562.5,455.608,572.5,459.608,562.5,463.608,566.5,459.608" style="stroke:#181818;stroke-width:1.0;"/><line style="stroke:#181818;stroke-width:1.0;" x1="410.5" x2="568.5" y1="459.608" y2="459.608"/><text fill="#000000" font-family="FG Virgil" font-size="13" lengthAdjust="spacing" textLength="109" x="417.5" y="453.799">activateUser(user)</text><polygon fill="#181818" points="421.5,487.314,411.5,491.314,421.5,495.314,417.5,491.314" style="stroke:#181818;stroke-width:1.0;"/><line style="stroke:#181818;stroke-width:1.0;" x1="415.5" x2="578.5" y1="491.314" y2="491.314"/><text fill="#000000" font-family="FG Virgil" font-size="13" lengthAdjust="spacing" textLength="26" x="427.5" y="485.505">user</text><polygon fill="#181818" points="707,519.0201,717,523.0201,707,527.0201,711,523.0201" style="stroke:#181818;stroke-width:1.0;"/><line style="stroke:#181818;stroke-width:1.0;" x1="410.5" x2="713" y1="523.0201" y2="523.0201"/><text fill="#000000" font-family="FG Virgil" font-size="13" lengthAdjust="spacing" textLength="79" x="417.5" y="517.2111">repositories()</text><polygon fill="#181818" points="859.5,550.7261,869.5,554.7261,859.5,558.7261,863.5,554.7261" style="stroke:#181818;stroke-width:1.0;"/><line style="stroke:#181818;stroke-width:1.0;" x1="729" x2="865.5" y1="554.7261" y2="554.7261"/><text fill="#000000" font-family="FG Virgil" font-size="13" lengthAdjust="spacing" textLength="37" x="736" y="548.9171">create</text><polygon fill="#181818" points="421.5,582.4321,411.5,586.4321,421.5,590.4321,417.5,586.4321" style="stroke:#181818;stroke-width:1.0;"/><line style="stroke:#181818;stroke-width:1.0;" x1="415.5" x2="723" y1="586.4321" y2="586.4321"/><text fill="#000000" font-family="FG Virgil" font-size="13" lengthAdjust="spacing" textLength="42" x="427.5" y="580.6231">factory</text><polygon fill="#181818" points="854.5,614.1381,864.5,618.1381,854.5,622.1381,858.5,618.1381" style="stroke:#181818;stroke-width:1.0;"/><line style="stroke:#181818;stroke-width:1.0;" x1="410.5" x2="860.5" y1="618.1381" y2="618.1381"/><text fill="#000000" font-family="FG Virgil" font-size="13" lengthAdjust="spacing" textLength="40" x="417.5" y="612.3291">users()</text><polygon fill="#181818" points="990,645.8441,1000,649.8441,990,653.8441,994,649.8441" style="stroke:#181818;stroke-width:1.0;"/><line style="stroke:#181818;stroke-width:1.0;" x1="876.5" x2="996" y1="649.8441" y2="649.8441"/><text fill="#000000" font-family="FG Virgil" font-size="13" lengthAdjust="spacing" textLength="37" x="883.5" y="644.0351">create</text><polygon fill="#181818" points="421.5,677.5501,411.5,681.5501,421.5,685.5501,417.5,681.5501" style="stroke:#181818;stroke-width:1.0;"/><line style="stroke:#181818;stroke-width:1.0;" x1="415.5" x2="870.5" y1="681.5501" y2="681.5501"/><text fill="#000000" font-family="FG Virgil" font-size="13" lengthAdjust="spacing" textLength="91" x="427.5" y="675.7411">userRepository</text><polygon fill="#181818" points="990,709.2562,1000,713.2562,990,717.2562,994,713.2562" style="stroke:#181818;stroke-width:1.0;"/><line style="stroke:#181818;stroke-width:1.0;" x1="410.5" x2="996" y1="713.2562" y2="713.2562"/><text fill="#000000" font-family="FG Virgil" font-size="13" lengthAdjust="spacing" textLength="61" x="417.5" y="707.4472">save(user)</text><polygon fill="#181818" points="232.5,740.9622,222.5,744.9622,232.5,748.9622,228.5,744.9622" style="stroke:#181818;stroke-width:1.0;"/><line style="stroke:#181818;stroke-width:1.0;" x1="226.5" x2="404.5" y1="744.9622" y2="744.9622"/><text fill="#000000" font-family="FG Virgil" font-size="13" lengthAdjust="spacing" textLength="26" x="238.5" y="739.1532">user</text><polygon fill="#181818" points="64.5,772.6682,54.5,776.6682,64.5,780.6682,60.5,776.6682" style="stroke:#181818;stroke-width:1.0;"/><line style="stroke:#181818;stroke-width:1.0;stroke-dasharray:2.0,2.0;" x1="58.5" x2="215.5" y1="776.6682" y2="776.6682"/><text fill="#000000" font-family="FG Virgil" font-size="13" lengthAdjust="spacing" textLength="94" x="70.5" y="770.8592">displayUserInfo</text><!--SRC=[dLJ1Rjim3BtxAxYUkaE1dWqlGD4kHO1r6nPafrqOcqc4o98WoStozwCKHvRTPEYcaopoFPAFfDrUA8CMMzYXQWvMU4yADYWT5IxPMgrqlREw9V2sooq6wprkQUcFai1IxJDRGnlif9zhvRyYG-VFy5FOhP2PZzjXemz2RVkO1TPUM_Xco6Aue8E7y5AmknUrCAXyihwWK2-akk2rMa1L6KkEb4Slj9hDHXXc4Q_eQUN8Fd96Laj9aJ_xgYeqHehw4i5DnyXoUNIUsa1o4x1FkkKS6DV4omJodQmJxAzg2a7ejm-Ox3MaF7nDq3_8Q2UupECyYd8CuFErgZQd6uCQzBX6Hn3I6b31FVkgAfi-65H4MU7kRiRIbV1PuPexYF38Oo2OaK8dec9iBu0FAypEWrebOAPfq5Uhsu_HDK47x_WUJYOtqvq4B7bMpfWciBcUQ4HsyatllVQJd2IB2NgJ4qBed4kumP8pPgzPqgbmZX85A-71xQ4-YmIgQzTzSMD1UqEqIAqDQ1C4WW-Vu3wbCcPUxlG1ld3-lnGNy9GLi1eLC0wq9Cbh5rsY1wccU4U_Rbt4dUJ-twwD2Bj4zEzTwrmMwss3hgIHRL89QRe5NPoUp3aPmydNaJdx1IkXjXIsu2-kUG7zDbwg8GzyfP0KjBis-_C9VpZdVm4J37j-CV7CSwhwWBoK-pdibRppi0vVQJ83O-SmhAdFxrwtHZWZyHWcRA4skiY0gyKV]--></g></svg>