<?xml version="1.0" encoding="us-ascii" standalone="no"?><svg xmlns="http://www.w3.org/2000/svg" xmlns:xlink="http://www.w3.org/1999/xlink" contentStyleType="text/css" height="1503px" preserveAspectRatio="none" style="width:1597px;height:1503px;background:#FFFFFF;" version="1.1" viewBox="0 0 1597 1503" width="1597px" zoomAndPan="magnify"><defs/><g><rect fill="#FFFFFF" height="1264.9805" style="stroke:#181818;stroke-width:1.0;" width="10" x="328.5" y="121.5332"/><rect fill="#FFFFFF" height="219.0371" style="stroke:#181818;stroke-width:1.0;" width="10" x="712.5" y="184.1152"/><rect fill="#FFFFFF" height="187.7461" style="stroke:#181818;stroke-width:1.0;" width="10" x="712.5" y="497.0254"/><rect fill="#FFFFFF" height="169.4551" style="stroke:#181818;stroke-width:1.0;" width="10" x="712.5" y="898.8086"/><rect fill="#FFFFFF" height="169.4551" style="stroke:#181818;stroke-width:1.0;" width="10" x="712.5" y="1178.7676"/><rect fill="#FFFFFF" height="156.4551" style="stroke:#181818;stroke-width:1.0;" width="10" x="891.5" y="215.4063"/><rect fill="#FFFFFF" height="31.291" style="stroke:#181818;stroke-width:1.0;" width="10" x="891.5" y="622.1895"/><rect fill="#FFFFFF" height="31.291" style="stroke:#181818;stroke-width:1.0;" width="10" x="891.5" y="930.0996"/><rect fill="#FFFFFF" height="31.291" style="stroke:#181818;stroke-width:1.0;" width="10" x="891.5" y="1210.0586"/><rect fill="#FFFFFF" height="93.873" style="stroke:#181818;stroke-width:1.0;" width="10" x="1088.5" y="246.6973"/><rect fill="#FFFFFF" height="93.873" style="stroke:#181818;stroke-width:1.0;" width="10" x="1088.5" y="528.3164"/><rect fill="#FFFFFF" height="31.291" style="stroke:#181818;stroke-width:1.0;" width="10" x="1088.5" y="1036.9727"/><rect fill="#FFFFFF" height="31.291" style="stroke:#181818;stroke-width:1.0;" width="10" x="1088.5" y="1316.9316"/><rect fill="#FFFFFF" height="31.291" style="stroke:#181818;stroke-width:1.0;" width="10" x="1516" y="277.9883"/><rect fill="#FFFFFF" height="31.291" style="stroke:#181818;stroke-width:1.0;" width="10" x="1516" y="559.6074"/><rect fill="none" height="562.5781" style="stroke:#000000;stroke-width:1.5;" width="1150" x="10" y="793.6445"/><line style="stroke:#181818;stroke-width:0.5;stroke-dasharray:5.0,5.0;" x1="81" x2="81" y1="88.2422" y2="1404.5137"/><line style="stroke:#181818;stroke-width:0.5;stroke-dasharray:5.0,5.0;" x1="333.5" x2="333.5" y1="88.2422" y2="1404.5137"/><line style="stroke:#181818;stroke-width:0.5;stroke-dasharray:5.0,5.0;" x1="717.5" x2="717.5" y1="88.2422" y2="1404.5137"/><line style="stroke:#181818;stroke-width:0.5;stroke-dasharray:5.0,5.0;" x1="896.5" x2="896.5" y1="88.2422" y2="1404.5137"/><line style="stroke:#181818;stroke-width:0.5;stroke-dasharray:5.0,5.0;" x1="1093" x2="1093" y1="88.2422" y2="1404.5137"/><line style="stroke:#181818;stroke-width:0.5;stroke-dasharray:5.0,5.0;" x1="1228" x2="1228" y1="88.2422" y2="1404.5137"/><line style="stroke:#181818;stroke-width:0.5;stroke-dasharray:5.0,5.0;" x1="1371" x2="1371" y1="88.2422" y2="1404.5137"/><line style="stroke:#181818;stroke-width:0.5;stroke-dasharray:5.0,5.0;" x1="1521" x2="1521" y1="88.2422" y2="1404.5137"/><text fill="#000000" font-family="FG Virgil" font-size="14" lengthAdjust="spacing" textLength="117" x="20" y="84.7285">CustomerManager</text><ellipse cx="81.5" cy="18.1211" fill="#E3E3E3" rx="8" ry="8" style="stroke:#181818;stroke-width:0.5;"/><path d="M81.5,26.1211 L81.5,53.1211 M68.5,34.1211 L94.5,34.1211 M81.5,53.1211 L68.5,68.1211 M81.5,53.1211 L94.5,68.1211 " fill="none" style="stroke:#181818;stroke-width:0.5;"/><text fill="#000000" font-family="FG Virgil" font-size="14" lengthAdjust="spacing" textLength="117" x="20" y="1418.6211">CustomerManager</text><ellipse cx="81.5" cy="1430.6348" fill="#E3E3E3" rx="8" ry="8" style="stroke:#181818;stroke-width:0.5;"/><path d="M81.5,1438.6348 L81.5,1465.6348 M68.5,1446.6348 L94.5,1446.6348 M81.5,1465.6348 L68.5,1480.6348 M81.5,1465.6348 L94.5,1480.6348 " fill="none" style="stroke:#181818;stroke-width:0.5;"/><rect fill="#E3E3E3" height="51.2422" rx="2.5" ry="2.5" style="stroke:#181818;stroke-width:0.5;" width="160" x="253.5" y="36"/><text fill="#000000" font-family="FG Virgil" font-size="14" font-style="italic" lengthAdjust="spacing" textLength="95" x="286" y="58.1074">&#171;presentation&#187;</text><text fill="#000000" font-family="FG Virgil" font-size="14" lengthAdjust="spacing" textLength="146" x="260.5" y="76.7285">OpenOrClosePhasesUI</text><rect fill="#E3E3E3" height="51.2422" rx="2.5" ry="2.5" style="stroke:#181818;stroke-width:0.5;" width="160" x="253.5" y="1403.5137"/><text fill="#000000" font-family="FG Virgil" font-size="14" font-style="italic" lengthAdjust="spacing" textLength="95" x="286" y="1425.6211">&#171;presentation&#187;</text><text fill="#000000" font-family="FG Virgil" font-size="14" lengthAdjust="spacing" textLength="146" x="260.5" y="1444.2422">OpenOrClosePhasesUI</text><rect fill="#E3E3E3" height="51.2422" rx="2.5" ry="2.5" style="stroke:#181818;stroke-width:0.5;" width="210" x="612.5" y="36"/><text fill="#000000" font-family="FG Virgil" font-size="14" font-style="italic" lengthAdjust="spacing" textLength="84" x="675.5" y="58.1074">&#171;application&#187;</text><text fill="#000000" font-family="FG Virgil" font-size="14" lengthAdjust="spacing" textLength="196" x="619.5" y="76.7285">OpenOrClosePhasesController</text><rect fill="#E3E3E3" height="51.2422" rx="2.5" ry="2.5" style="stroke:#181818;stroke-width:0.5;" width="210" x="612.5" y="1403.5137"/><text fill="#000000" font-family="FG Virgil" font-size="14" font-style="italic" lengthAdjust="spacing" textLength="84" x="675.5" y="1425.6211">&#171;application&#187;</text><text fill="#000000" font-family="FG Virgil" font-size="14" lengthAdjust="spacing" textLength="196" x="619.5" y="1444.2422">OpenOrClosePhasesController</text><rect fill="#E3E3E3" height="51.2422" rx="2.5" ry="2.5" style="stroke:#181818;stroke-width:0.5;" width="120" x="836.5" y="36"/><text fill="#000000" font-family="FG Virgil" font-size="14" font-style="italic" lengthAdjust="spacing" textLength="46" x="873.5" y="58.1074">&#171;DTO&#187;</text><text fill="#000000" font-family="FG Virgil" font-size="14" lengthAdjust="spacing" textLength="106" x="843.5" y="76.7285">JobOpeningDTO</text><rect fill="#E3E3E3" height="51.2422" rx="2.5" ry="2.5" style="stroke:#181818;stroke-width:0.5;" width="120" x="836.5" y="1403.5137"/><text fill="#000000" font-family="FG Virgil" font-size="14" font-style="italic" lengthAdjust="spacing" textLength="46" x="873.5" y="1425.6211">&#171;DTO&#187;</text><text fill="#000000" font-family="FG Virgil" font-size="14" lengthAdjust="spacing" textLength="106" x="843.5" y="1444.2422">JobOpeningDTO</text><rect fill="#E3E3E3" height="51.2422" rx="2.5" ry="2.5" style="stroke:#181818;stroke-width:0.5;" width="113" x="1037" y="36"/><text fill="#000000" font-family="FG Virgil" font-size="14" font-style="italic" lengthAdjust="spacing" textLength="62" x="1062.5" y="58.1074">&#171;Service&#187;</text><text fill="#000000" font-family="FG Virgil" font-size="14" lengthAdjust="spacing" textLength="99" x="1044" y="76.7285">JobOpeningSvc</text><rect fill="#E3E3E3" height="51.2422" rx="2.5" ry="2.5" style="stroke:#181818;stroke-width:0.5;" width="113" x="1037" y="1403.5137"/><text fill="#000000" font-family="FG Virgil" font-size="14" font-style="italic" lengthAdjust="spacing" textLength="62" x="1062.5" y="1425.6211">&#171;Service&#187;</text><text fill="#000000" font-family="FG Virgil" font-size="14" lengthAdjust="spacing" textLength="99" x="1044" y="1444.2422">JobOpeningSvc</text><rect fill="#E3E3E3" height="51.2422" rx="2.5" ry="2.5" style="stroke:#181818;stroke-width:0.5;" width="136" x="1160" y="36"/><text fill="#000000" font-family="FG Virgil" font-size="14" font-style="italic" lengthAdjust="spacing" textLength="89" x="1183.5" y="58.1074">&#171;persistence&#187;</text><text fill="#000000" font-family="FG Virgil" font-size="14" lengthAdjust="spacing" textLength="122" x="1167" y="76.7285">PersistenceContext</text><rect fill="#E3E3E3" height="51.2422" rx="2.5" ry="2.5" style="stroke:#181818;stroke-width:0.5;" width="136" x="1160" y="1403.5137"/><text fill="#000000" font-family="FG Virgil" font-size="14" font-style="italic" lengthAdjust="spacing" textLength="89" x="1183.5" y="1425.6211">&#171;persistence&#187;</text><text fill="#000000" font-family="FG Virgil" font-size="14" lengthAdjust="spacing" textLength="122" x="1167" y="1444.2422">PersistenceContext</text><rect fill="#E3E3E3" height="51.2422" rx="2.5" ry="2.5" style="stroke:#181818;stroke-width:0.5;" width="130" x="1306" y="36"/><text fill="#000000" font-family="FG Virgil" font-size="14" font-style="italic" lengthAdjust="spacing" textLength="59" x="1341.5" y="58.1074">&#171;factory&#187;</text><text fill="#000000" font-family="FG Virgil" font-size="14" lengthAdjust="spacing" textLength="116" x="1313" y="76.7285">RepositoryFactory</text><rect fill="#E3E3E3" height="51.2422" rx="2.5" ry="2.5" style="stroke:#181818;stroke-width:0.5;" width="130" x="1306" y="1403.5137"/><text fill="#000000" font-family="FG Virgil" font-size="14" font-style="italic" lengthAdjust="spacing" textLength="59" x="1341.5" y="1425.6211">&#171;factory&#187;</text><text fill="#000000" font-family="FG Virgil" font-size="14" lengthAdjust="spacing" textLength="116" x="1313" y="1444.2422">RepositoryFactory</text><text fill="#000000" font-family="FG Virgil" font-size="14" font-style="italic" lengthAdjust="spacing" textLength="79" x="1478.5" y="66.1074">&#171;repository&#187;</text><text fill="#000000" font-family="FG Virgil" font-size="14" lengthAdjust="spacing" textLength="144" x="1446" y="84.7285">JobOpeningRepository</text><path d="M1503,15 C1503,5 1521,5 1521,5 C1521,5 1539,5 1539,15 L1539,41 C1539,51 1521,51 1521,51 C1521,51 1503,51 1503,41 L1503,15 " fill="#E3E3E3" style="stroke:#181818;stroke-width:1.5;"/><path d="M1503,15 C1503,25 1521,25 1521,25 C1521,25 1539,25 1539,15 " fill="none" style="stroke:#181818;stroke-width:1.5;"/><text fill="#000000" font-family="FG Virgil" font-size="14" font-style="italic" lengthAdjust="spacing" textLength="79" x="1478.5" y="1418.6211">&#171;repository&#187;</text><text fill="#000000" font-family="FG Virgil" font-size="14" lengthAdjust="spacing" textLength="144" x="1446" y="1437.2422">JobOpeningRepository</text><path d="M1503,1450.7559 C1503,1440.7559 1521,1440.7559 1521,1440.7559 C1521,1440.7559 1539,1440.7559 1539,1450.7559 L1539,1476.7559 C1539,1486.7559 1521,1486.7559 1521,1486.7559 C1521,1486.7559 1503,1486.7559 1503,1476.7559 L1503,1450.7559 " fill="#E3E3E3" style="stroke:#181818;stroke-width:1.5;"/><path d="M1503,1450.7559 C1503,1460.7559 1521,1460.7559 1521,1460.7559 C1521,1460.7559 1539,1460.7559 1539,1450.7559 " fill="none" style="stroke:#181818;stroke-width:1.5;"/><rect fill="#FFFFFF" height="1264.9805" style="stroke:#181818;stroke-width:1.0;" width="10" x="328.5" y="121.5332"/><rect fill="#FFFFFF" height="219.0371" style="stroke:#181818;stroke-width:1.0;" width="10" x="712.5" y="184.1152"/><rect fill="#FFFFFF" height="187.7461" style="stroke:#181818;stroke-width:1.0;" width="10" x="712.5" y="497.0254"/><rect fill="#FFFFFF" height="169.4551" style="stroke:#181818;stroke-width:1.0;" width="10" x="712.5" y="898.8086"/><rect fill="#FFFFFF" height="169.4551" style="stroke:#181818;stroke-width:1.0;" width="10" x="712.5" y="1178.7676"/><rect fill="#FFFFFF" height="156.4551" style="stroke:#181818;stroke-width:1.0;" width="10" x="891.5" y="215.4063"/><rect fill="#FFFFFF" height="31.291" style="stroke:#181818;stroke-width:1.0;" width="10" x="891.5" y="622.1895"/><rect fill="#FFFFFF" height="31.291" style="stroke:#181818;stroke-width:1.0;" width="10" x="891.5" y="930.0996"/><rect fill="#FFFFFF" height="31.291" style="stroke:#181818;stroke-width:1.0;" width="10" x="891.5" y="1210.0586"/><rect fill="#FFFFFF" height="93.873" style="stroke:#181818;stroke-width:1.0;" width="10" x="1088.5" y="246.6973"/><rect fill="#FFFFFF" height="93.873" style="stroke:#181818;stroke-width:1.0;" width="10" x="1088.5" y="528.3164"/><rect fill="#FFFFFF" height="31.291" style="stroke:#181818;stroke-width:1.0;" width="10" x="1088.5" y="1036.9727"/><rect fill="#FFFFFF" height="31.291" style="stroke:#181818;stroke-width:1.0;" width="10" x="1088.5" y="1316.9316"/><rect fill="#FFFFFF" height="31.291" style="stroke:#181818;stroke-width:1.0;" width="10" x="1516" y="277.9883"/><rect fill="#FFFFFF" height="31.291" style="stroke:#181818;stroke-width:1.0;" width="10" x="1516" y="559.6074"/><polygon fill="#181818" points="316.5,117.5332,326.5,121.5332,316.5,125.5332,320.5,121.5332" style="stroke:#181818;stroke-width:1.0;"/><line style="stroke:#181818;stroke-width:1.0;stroke-dasharray:2.0,2.0;" x1="81.5" x2="322.5" y1="121.5332" y2="121.5332"/><text fill="#000000" font-family="FG Virgil" font-size="13" lengthAdjust="spacing" textLength="158" x="88.5" y="116.2705">Select open or close phase</text><polygon fill="#181818" points="705.5,148.8242,715.5,152.8242,705.5,156.8242,709.5,152.8242" style="stroke:#181818;stroke-width:1.0;"/><line style="stroke:#181818;stroke-width:1.0;" x1="338.5" x2="711.5" y1="152.8242" y2="152.8242"/><text fill="#000000" font-family="FG Virgil" font-size="13" lengthAdjust="spacing" textLength="36" x="345.5" y="147.5615">create</text><polygon fill="#181818" points="700.5,180.1152,710.5,184.1152,700.5,188.1152,704.5,184.1152" style="stroke:#181818;stroke-width:1.0;"/><line style="stroke:#181818;stroke-width:1.0;" x1="338.5" x2="706.5" y1="184.1152" y2="184.1152"/><text fill="#000000" font-family="FG Virgil" font-size="13" lengthAdjust="spacing" textLength="94" x="345.5" y="178.8525">getJobOpening()</text><polygon fill="#181818" points="879.5,211.4063,889.5,215.4063,879.5,219.4063,883.5,215.4063" style="stroke:#181818;stroke-width:1.0;"/><line style="stroke:#181818;stroke-width:1.0;" x1="722.5" x2="885.5" y1="215.4063" y2="215.4063"/><text fill="#000000" font-family="FG Virgil" font-size="13" lengthAdjust="spacing" textLength="126" x="729.5" y="210.1436">listJobOpeningsDTO()</text><polygon fill="#181818" points="1076.5,242.6973,1086.5,246.6973,1076.5,250.6973,1080.5,246.6973" style="stroke:#181818;stroke-width:1.0;"/><line style="stroke:#181818;stroke-width:1.0;" x1="901.5" x2="1082.5" y1="246.6973" y2="246.6973"/><text fill="#000000" font-family="FG Virgil" font-size="13" lengthAdjust="spacing" textLength="168" x="908.5" y="241.4346">listJobOpeningsByUser(user)</text><polygon fill="#181818" points="1504,273.9883,1514,277.9883,1504,281.9883,1508,277.9883" style="stroke:#181818;stroke-width:1.0;"/><line style="stroke:#181818;stroke-width:1.0;" x1="1098.5" x2="1510" y1="277.9883" y2="277.9883"/><text fill="#000000" font-family="FG Virgil" font-size="13" lengthAdjust="spacing" textLength="86" x="1105.5" y="272.7256">findAllByUser()</text><polygon fill="#181818" points="1109.5,305.2793,1099.5,309.2793,1109.5,313.2793,1105.5,309.2793" style="stroke:#181818;stroke-width:1.0;"/><line style="stroke:#181818;stroke-width:1.0;" x1="1103.5" x2="1520" y1="309.2793" y2="309.2793"/><text fill="#000000" font-family="FG Virgil" font-size="13" lengthAdjust="spacing" textLength="91" x="1115.5" y="304.0166">JobopeningDTO</text><polygon fill="#181818" points="912.5,336.5703,902.5,340.5703,912.5,344.5703,908.5,340.5703" style="stroke:#181818;stroke-width:1.0;"/><line style="stroke:#181818;stroke-width:1.0;" x1="906.5" x2="1092.5" y1="340.5703" y2="340.5703"/><text fill="#000000" font-family="FG Virgil" font-size="13" lengthAdjust="spacing" textLength="94" x="918.5" y="335.3076">JobOpeningDTO</text><polygon fill="#181818" points="733.5,367.8613,723.5,371.8613,733.5,375.8613,729.5,371.8613" style="stroke:#181818;stroke-width:1.0;"/><line style="stroke:#181818;stroke-width:1.0;" x1="727.5" x2="895.5" y1="371.8613" y2="371.8613"/><text fill="#000000" font-family="FG Virgil" font-size="13" lengthAdjust="spacing" textLength="131" x="739.5" y="366.5986">List&lt;JobOpeningDTO&gt;</text><polygon fill="#181818" points="349.5,399.1523,339.5,403.1523,349.5,407.1523,345.5,403.1523" style="stroke:#181818;stroke-width:1.0;"/><line style="stroke:#181818;stroke-width:1.0;stroke-dasharray:2.0,2.0;" x1="343.5" x2="716.5" y1="403.1523" y2="403.1523"/><text fill="#000000" font-family="FG Virgil" font-size="13" lengthAdjust="spacing" textLength="131" x="355.5" y="397.8896">List&lt;JobOpeningDTO&gt;</text><polygon fill="#181818" points="92.5,430.4434,82.5,434.4434,92.5,438.4434,88.5,434.4434" style="stroke:#181818;stroke-width:1.0;"/><line style="stroke:#181818;stroke-width:1.0;stroke-dasharray:2.0,2.0;" x1="86.5" x2="327.5" y1="434.4434" y2="434.4434"/><text fill="#000000" font-family="FG Virgil" font-size="13" lengthAdjust="spacing" textLength="176" x="98.5" y="429.1807">Ask user to select job opening</text><polygon fill="#181818" points="316.5,461.7344,326.5,465.7344,316.5,469.7344,320.5,465.7344" style="stroke:#181818;stroke-width:1.0;"/><line style="stroke:#181818;stroke-width:1.0;stroke-dasharray:2.0,2.0;" x1="81.5" x2="322.5" y1="465.7344" y2="465.7344"/><text fill="#000000" font-family="FG Virgil" font-size="13" lengthAdjust="spacing" textLength="116" x="88.5" y="460.4717">Select jobReference</text><polygon fill="#181818" points="700.5,493.0254,710.5,497.0254,700.5,501.0254,704.5,497.0254" style="stroke:#181818;stroke-width:1.0;"/><line style="stroke:#181818;stroke-width:1.0;" x1="338.5" x2="706.5" y1="497.0254" y2="497.0254"/><text fill="#000000" font-family="FG Virgil" font-size="13" lengthAdjust="spacing" textLength="333" x="345.5" y="491.7627">jobOpeningStatus(selectedJobOpeningDTO.jobReference)</text><polygon fill="#181818" points="1076.5,524.3164,1086.5,528.3164,1076.5,532.3164,1080.5,528.3164" style="stroke:#181818;stroke-width:1.0;"/><line style="stroke:#181818;stroke-width:1.0;" x1="722.5" x2="1082.5" y1="528.3164" y2="528.3164"/><text fill="#000000" font-family="FG Virgil" font-size="13" lengthAdjust="spacing" textLength="243" x="729.5" y="523.0537">getJobOpeningByReference(jobReference)</text><polygon fill="#181818" points="1504,555.6074,1514,559.6074,1504,563.6074,1508,559.6074" style="stroke:#181818;stroke-width:1.0;"/><line style="stroke:#181818;stroke-width:1.0;" x1="1098.5" x2="1510" y1="559.6074" y2="559.6074"/><text fill="#000000" font-family="FG Virgil" font-size="13" lengthAdjust="spacing" textLength="106" x="1105.5" y="554.3447">job opening status</text><polygon fill="#181818" points="1109.5,586.8984,1099.5,590.8984,1109.5,594.8984,1105.5,590.8984" style="stroke:#181818;stroke-width:1.0;"/><line style="stroke:#181818;stroke-width:1.0;" x1="1103.5" x2="1520" y1="590.8984" y2="590.8984"/><text fill="#000000" font-family="FG Virgil" font-size="13" lengthAdjust="spacing" textLength="145" x="1115.5" y="585.6357">job opening phase status</text><polygon fill="#181818" points="912.5,618.1895,902.5,622.1895,912.5,626.1895,908.5,622.1895" style="stroke:#181818;stroke-width:1.0;"/><line style="stroke:#181818;stroke-width:1.0;stroke-dasharray:2.0,2.0;" x1="906.5" x2="1092.5" y1="622.1895" y2="622.1895"/><text fill="#000000" font-family="FG Virgil" font-size="13" lengthAdjust="spacing" textLength="145" x="918.5" y="616.9268">job opening phase status</text><polygon fill="#181818" points="733.5,649.4805,723.5,653.4805,733.5,657.4805,729.5,653.4805" style="stroke:#181818;stroke-width:1.0;"/><line style="stroke:#181818;stroke-width:1.0;stroke-dasharray:2.0,2.0;" x1="727.5" x2="895.5" y1="653.4805" y2="653.4805"/><text fill="#000000" font-family="FG Virgil" font-size="13" lengthAdjust="spacing" textLength="145" x="739.5" y="648.2178">job opening phase status</text><polygon fill="#181818" points="349.5,680.7715,339.5,684.7715,349.5,688.7715,345.5,684.7715" style="stroke:#181818;stroke-width:1.0;"/><line style="stroke:#181818;stroke-width:1.0;stroke-dasharray:2.0,2.0;" x1="343.5" x2="716.5" y1="684.7715" y2="684.7715"/><text fill="#000000" font-family="FG Virgil" font-size="13" lengthAdjust="spacing" textLength="145" x="355.5" y="679.5088">job opening phase status</text><polygon fill="#181818" points="92.5,712.0625,82.5,716.0625,92.5,720.0625,88.5,716.0625" style="stroke:#181818;stroke-width:1.0;"/><line style="stroke:#181818;stroke-width:1.0;stroke-dasharray:2.0,2.0;" x1="86.5" x2="327.5" y1="716.0625" y2="716.0625"/><text fill="#000000" font-family="FG Virgil" font-size="13" lengthAdjust="spacing" textLength="126" x="98.5" y="710.7998">Display current phase</text><polygon fill="#181818" points="92.5,743.3535,82.5,747.3535,92.5,751.3535,88.5,747.3535" style="stroke:#181818;stroke-width:1.0;"/><line style="stroke:#181818;stroke-width:1.0;stroke-dasharray:2.0,2.0;" x1="86.5" x2="327.5" y1="747.3535" y2="747.3535"/><text fill="#000000" font-family="FG Virgil" font-size="13" lengthAdjust="spacing" textLength="140" x="98.5" y="742.0908">Prompt for next/previous</text><polygon fill="#181818" points="316.5,774.6445,326.5,778.6445,316.5,782.6445,320.5,778.6445" style="stroke:#181818;stroke-width:1.0;"/><line style="stroke:#181818;stroke-width:1.0;stroke-dasharray:2.0,2.0;" x1="81.5" x2="322.5" y1="778.6445" y2="778.6445"/><text fill="#000000" font-family="FG Virgil" font-size="13" lengthAdjust="spacing" textLength="35" x="88.5" y="773.3818">option</text><path d="M10,793.6445 L71,793.6445 L71,802.9355 L61,812.9355 L10,812.9355 L10,793.6445 " fill="#EEEEEE" style="stroke:#000000;stroke-width:1.5;"/><rect fill="none" height="562.5781" style="stroke:#000000;stroke-width:1.5;" width="1150" x="10" y="793.6445"/><text fill="#000000" font-family="FG Virgil" font-size="13" font-weight="bold" lengthAdjust="spacing" textLength="16" x="25" y="808.6729">alt</text><text fill="#000000" font-family="FG Virgil" font-size="11" font-weight="bold" lengthAdjust="spacing" textLength="118" x="86" y="807.5146">[option is "previous"]</text><polygon fill="#181818" points="92.5,832.2266,82.5,836.2266,92.5,840.2266,88.5,836.2266" style="stroke:#181818;stroke-width:1.0;"/><line style="stroke:#181818;stroke-width:1.0;stroke-dasharray:2.0,2.0;" x1="86.5" x2="327.5" y1="836.2266" y2="836.2266"/><text fill="#000000" font-family="FG Virgil" font-size="13" lengthAdjust="spacing" textLength="223" x="98.5" y="830.9639">Prompt for start date of previous phase</text><polygon fill="#181818" points="316.5,863.5176,326.5,867.5176,316.5,871.5176,320.5,867.5176" style="stroke:#181818;stroke-width:1.0;"/><line style="stroke:#181818;stroke-width:1.0;stroke-dasharray:2.0,2.0;" x1="81.5" x2="322.5" y1="867.5176" y2="867.5176"/><text fill="#000000" font-family="FG Virgil" font-size="13" lengthAdjust="spacing" textLength="55" x="88.5" y="862.2549">openDate</text><polygon fill="#181818" points="700.5,894.8086,710.5,898.8086,700.5,902.8086,704.5,898.8086" style="stroke:#181818;stroke-width:1.0;"/><line style="stroke:#181818;stroke-width:1.0;" x1="338.5" x2="706.5" y1="898.8086" y2="898.8086"/><text fill="#000000" font-family="FG Virgil" font-size="13" lengthAdjust="spacing" textLength="355" x="345.5" y="893.5459">returnToPreviousProcessPhase(jobOpeningStatus, openDate)</text><polygon fill="#181818" points="879.5,926.0996,889.5,930.0996,879.5,934.0996,883.5,930.0996" style="stroke:#181818;stroke-width:1.0;"/><line style="stroke:#181818;stroke-width:1.0;" x1="722.5" x2="885.5" y1="930.0996" y2="930.0996"/><text fill="#000000" font-family="FG Virgil" font-size="13" lengthAdjust="spacing" textLength="144" x="729.5" y="924.8369">getRecruitmentProcess()</text><polygon fill="#181818" points="733.5,957.3906,723.5,961.3906,733.5,965.3906,729.5,961.3906" style="stroke:#181818;stroke-width:1.0;"/><line style="stroke:#181818;stroke-width:1.0;" x1="727.5" x2="895.5" y1="961.3906" y2="961.3906"/><text fill="#000000" font-family="FG Virgil" font-size="13" lengthAdjust="spacing" textLength="113" x="739.5" y="956.1279">recruitmentProcess</text><line style="stroke:#181818;stroke-width:1.0;" x1="722.5" x2="764.5" y1="992.6816" y2="992.6816"/><line style="stroke:#181818;stroke-width:1.0;" x1="764.5" x2="764.5" y1="992.6816" y2="1005.6816"/><line style="stroke:#181818;stroke-width:1.0;" x1="723.5" x2="764.5" y1="1005.6816" y2="1005.6816"/><polygon fill="#181818" points="733.5,1001.6816,723.5,1005.6816,733.5,1009.6816,729.5,1005.6816" style="stroke:#181818;stroke-width:1.0;"/><text fill="#000000" font-family="FG Virgil" font-size="13" lengthAdjust="spacing" textLength="85" x="729.5" y="987.4189">update phases</text><polygon fill="#181818" points="1076.5,1032.9727,1086.5,1036.9727,1076.5,1040.9727,1080.5,1036.9727" style="stroke:#181818;stroke-width:1.0;"/><line style="stroke:#181818;stroke-width:1.0;" x1="722.5" x2="1082.5" y1="1036.9727" y2="1036.9727"/><text fill="#000000" font-family="FG Virgil" font-size="13" lengthAdjust="spacing" textLength="167" x="729.5" y="1031.71">saveJobOpening(jobOpening)</text><polygon fill="#181818" points="728.5,1064.2637,718.5,1068.2637,728.5,1072.2637,724.5,1068.2637" style="stroke:#181818;stroke-width:1.0;"/><line style="stroke:#181818;stroke-width:1.0;stroke-dasharray:2.0,2.0;" x1="722.5" x2="1092.5" y1="1068.2637" y2="1068.2637"/><text fill="#000000" font-family="FG Virgil" font-size="13" lengthAdjust="spacing" textLength="70" x="734.5" y="1063.001">confirmation</text><line style="stroke:#000000;stroke-width:1.0;stroke-dasharray:2.0,2.0;" x1="10" x2="1160" y1="1077.2637" y2="1077.2637"/><text fill="#000000" font-family="FG Virgil" font-size="11" font-weight="bold" lengthAdjust="spacing" textLength="93" x="15" y="1089.1338">[option is "next"]</text><polygon fill="#181818" points="92.5,1112.1855,82.5,1116.1855,92.5,1120.1855,88.5,1116.1855" style="stroke:#181818;stroke-width:1.0;"/><line style="stroke:#181818;stroke-width:1.0;stroke-dasharray:2.0,2.0;" x1="86.5" x2="327.5" y1="1116.1855" y2="1116.1855"/><text fill="#000000" font-family="FG Virgil" font-size="13" lengthAdjust="spacing" textLength="221" x="98.5" y="1110.9229">Prompt for close date of current phase</text><polygon fill="#181818" points="316.5,1143.4766,326.5,1147.4766,316.5,1151.4766,320.5,1147.4766" style="stroke:#181818;stroke-width:1.0;"/><line style="stroke:#181818;stroke-width:1.0;stroke-dasharray:2.0,2.0;" x1="81.5" x2="322.5" y1="1147.4766" y2="1147.4766"/><text fill="#000000" font-family="FG Virgil" font-size="13" lengthAdjust="spacing" textLength="58" x="88.5" y="1142.2139">closeDate</text><polygon fill="#181818" points="700.5,1174.7676,710.5,1178.7676,700.5,1182.7676,704.5,1178.7676" style="stroke:#181818;stroke-width:1.0;"/><line style="stroke:#181818;stroke-width:1.0;" x1="338.5" x2="706.5" y1="1178.7676" y2="1178.7676"/><text fill="#000000" font-family="FG Virgil" font-size="13" lengthAdjust="spacing" textLength="333" x="345.5" y="1173.5049">moveToNextProcessPhase(jobOpeningStatus, closeDate)</text><polygon fill="#181818" points="879.5,1206.0586,889.5,1210.0586,879.5,1214.0586,883.5,1210.0586" style="stroke:#181818;stroke-width:1.0;"/><line style="stroke:#181818;stroke-width:1.0;" x1="722.5" x2="885.5" y1="1210.0586" y2="1210.0586"/><text fill="#000000" font-family="FG Virgil" font-size="13" lengthAdjust="spacing" textLength="144" x="729.5" y="1204.7959">getRecruitmentProcess()</text><polygon fill="#181818" points="733.5,1237.3496,723.5,1241.3496,733.5,1245.3496,729.5,1241.3496" style="stroke:#181818;stroke-width:1.0;"/><line style="stroke:#181818;stroke-width:1.0;" x1="727.5" x2="895.5" y1="1241.3496" y2="1241.3496"/><text fill="#000000" font-family="FG Virgil" font-size="13" lengthAdjust="spacing" textLength="113" x="739.5" y="1236.0869">recruitmentProcess</text><line style="stroke:#181818;stroke-width:1.0;" x1="722.5" x2="764.5" y1="1272.6406" y2="1272.6406"/><line style="stroke:#181818;stroke-width:1.0;" x1="764.5" x2="764.5" y1="1272.6406" y2="1285.6406"/><line style="stroke:#181818;stroke-width:1.0;" x1="723.5" x2="764.5" y1="1285.6406" y2="1285.6406"/><polygon fill="#181818" points="733.5,1281.6406,723.5,1285.6406,733.5,1289.6406,729.5,1285.6406" style="stroke:#181818;stroke-width:1.0;"/><text fill="#000000" font-family="FG Virgil" font-size="13" lengthAdjust="spacing" textLength="85" x="729.5" y="1267.3779">update phases</text><polygon fill="#181818" points="1076.5,1312.9316,1086.5,1316.9316,1076.5,1320.9316,1080.5,1316.9316" style="stroke:#181818;stroke-width:1.0;"/><line style="stroke:#181818;stroke-width:1.0;" x1="722.5" x2="1082.5" y1="1316.9316" y2="1316.9316"/><text fill="#000000" font-family="FG Virgil" font-size="13" lengthAdjust="spacing" textLength="167" x="729.5" y="1311.6689">saveJobOpening(jobOpening)</text><polygon fill="#181818" points="728.5,1344.2227,718.5,1348.2227,728.5,1352.2227,724.5,1348.2227" style="stroke:#181818;stroke-width:1.0;"/><line style="stroke:#181818;stroke-width:1.0;stroke-dasharray:2.0,2.0;" x1="722.5" x2="1092.5" y1="1348.2227" y2="1348.2227"/><text fill="#000000" font-family="FG Virgil" font-size="13" lengthAdjust="spacing" textLength="70" x="734.5" y="1342.96">confirmation</text><polygon fill="#181818" points="92.5,1382.5137,82.5,1386.5137,92.5,1390.5137,88.5,1386.5137" style="stroke:#181818;stroke-width:1.0;"/><line style="stroke:#181818;stroke-width:1.0;stroke-dasharray:2.0,2.0;" x1="86.5" x2="332.5" y1="1386.5137" y2="1386.5137"/><text fill="#000000" font-family="FG Virgil" font-size="13" lengthAdjust="spacing" textLength="138" x="98.5" y="1381.251">Returning to main menu</text><!--SRC=[xLR9Rjim4BthAuXUwW9DV3S40rcGeaMR64xIEqEDR2OKAP2KK_zzXzH6oPJZjAS2zK4MoPatsvkXFcwjBHVpUIcej5KXpfagvkQ5ov9gMfnlRI6IRacsL6QlcbiBakHK60ZE2YKLssfL0B6w2azAobxe1kxjNW3Hm6nmba5EAs5lbBIt55Lllf2VN6zuQDLiQQPUkTmqDXFAhDBagZ8MhUaVL2Aw9jIG2tUGe9RbZ9SO4RahGTxfAw4ChBRKW7dywWJncQQb1WFIKikLN2wFgrsXWre9KTi9LcbAor9m5aFvffuS47f-_N3dzDnVck9pKl1-nvpWFUWTPu32pTj8OGNQS8DbOE1yWL_MQGMxBhn-DT9UGwaCnrJjRtmgzqwvVKtJl7v3fOnQ-eJX1mxskaufMAMfxXQeclXQaBEp9IPxWG49B3nH249mcxdCajAbrbMJxwW5b4i8_h0sgDIdU46O1ZoVEDo0xRsRVV9I7MGlwFVTBwWT8hcAB8Z0FFKW1ZSRe04ORdUR-7wsRAjq072vVpIWPnK-8ZYDMdVGmg0xGJuN9ESokn2Y0Oi0zTBTMG20SBs3w9pggDX9Pt0CA_2hJjE0pp6GDh8mJSDw8Sftp5KwW5h6i9o9aso41MtODcKYW1anm_4AbJrf5-J2l11NF68LCJLpdzKJQJBe5QBqHg4rvA1TpoKJV7tkUnr7JsLcjG781lwUXr3l9NMJeb5lNEuxmDaX-XynD4WACJwQloBf0CyFXp7gYOIj6Rju5zu1hwRwtiEFAdgobH0hGjoZK77sHkXxpGtUvtl2AeqLjisSFPHRuMrTMf8ZaILU8NEy47TSDTQ615UbkzzgOrJOPasu8HzQhGzTO9DMC1XjIUOYK3bf5GF_OeP1NhVJFzvH6cobvODQDNXea84n_kAUZTljSuSOuNsaiw9NXk-iDJ1TSLjWXXkBmOoU951qAheOnc03ZGa67JeNObQbpxJFhZcYquqBGtSGtALzwYRY6e-9SGyExd0bSwuB_vaq5TeORtfS0tu7XXnqz3s1V_LdHyk_m_Ouf9_NU8D_XTh1Wxf55zvWNWVsdth_CFLabYH3Xgtz078p6xyN2iebmMHMIO21dxQ_0G00]--></g></svg>