<?xml version="1.0" encoding="us-ascii" standalone="no"?><svg xmlns="http://www.w3.org/2000/svg" xmlns:xlink="http://www.w3.org/1999/xlink" contentStyleType="text/css" height="1092px" preserveAspectRatio="none" style="width:1202px;height:1092px;background:#FFFFFF;" version="1.1" viewBox="0 0 1202 1092" width="1202px" zoomAndPan="magnify"><defs/><g><rect fill="#FFFFFF" height="854.1484" style="stroke:#181818;stroke-width:1.0;" width="10" x="226.5" y="121.5332"/><rect fill="#FFFFFF" height="567.2383" style="stroke:#181818;stroke-width:1.0;" width="10" x="409.5" y="377.1523"/><rect fill="#FFFFFF" height="111.1641" style="stroke:#181818;stroke-width:1.0;" width="10" x="554.5" y="545.6074"/><rect fill="#FFFFFF" height="99.873" style="stroke:#181818;stroke-width:1.0;" width="10" x="875" y="688.0625"/><rect fill="#FFFFFF" height="62.582" style="stroke:#181818;stroke-width:1.0;" width="10" x="1018" y="819.2266"/><rect fill="none" height="99.1641" style="stroke:#000000;stroke-width:1.5;" width="286" x="10" y="230.4063"/><line style="stroke:#181818;stroke-width:0.5;stroke-dasharray:5.0,5.0;" x1="42" x2="42" y1="88.2422" y2="993.6816"/><line style="stroke:#181818;stroke-width:0.5;stroke-dasharray:5.0,5.0;" x1="231" x2="231" y1="88.2422" y2="993.6816"/><line style="stroke:#181818;stroke-width:0.5;stroke-dasharray:5.0,5.0;" x1="414.5" x2="414.5" y1="88.2422" y2="993.6816"/><line style="stroke:#181818;stroke-width:0.5;stroke-dasharray:5.0,5.0;" x1="559" x2="559" y1="88.2422" y2="993.6816"/><line style="stroke:#181818;stroke-width:0.5;stroke-dasharray:5.0,5.0;" x1="741" x2="741" y1="88.2422" y2="993.6816"/><line style="stroke:#181818;stroke-width:0.5;stroke-dasharray:5.0,5.0;" x1="880" x2="880" y1="88.2422" y2="993.6816"/><line style="stroke:#181818;stroke-width:0.5;stroke-dasharray:5.0,5.0;" x1="1023" x2="1023" y1="88.2422" y2="993.6816"/><line style="stroke:#181818;stroke-width:0.5;stroke-dasharray:5.0,5.0;" x1="1149" x2="1149" y1="88.2422" y2="993.6816"/><text fill="#000000" font-family="FG Virgil" font-size="14" lengthAdjust="spacing" textLength="39" x="20" y="84.7285">Admin</text><ellipse cx="42.5" cy="18.1211" fill="#E3E3E3" rx="8" ry="8" style="stroke:#181818;stroke-width:0.5;"/><path d="M42.5,26.1211 L42.5,53.1211 M29.5,34.1211 L55.5,34.1211 M42.5,53.1211 L29.5,68.1211 M42.5,53.1211 L55.5,68.1211 " fill="none" style="stroke:#181818;stroke-width:0.5;"/><text fill="#000000" font-family="FG Virgil" font-size="14" lengthAdjust="spacing" textLength="39" x="20" y="1007.7891">Admin</text><ellipse cx="42.5" cy="1019.8027" fill="#E3E3E3" rx="8" ry="8" style="stroke:#181818;stroke-width:0.5;"/><path d="M42.5,1027.8027 L42.5,1054.8027 M29.5,1035.8027 L55.5,1035.8027 M42.5,1054.8027 L29.5,1069.8027 M42.5,1054.8027 L55.5,1069.8027 " fill="none" style="stroke:#181818;stroke-width:0.5;"/><rect fill="#E3E3E3" height="51.2422" rx="2.5" ry="2.5" style="stroke:#181818;stroke-width:0.5;" width="109" x="177" y="36"/><text fill="#000000" font-family="FG Virgil" font-size="14" font-style="italic" lengthAdjust="spacing" textLength="95" x="184" y="58.1074">&#171;presentation&#187;</text><text fill="#000000" font-family="FG Virgil" font-size="14" lengthAdjust="spacing" textLength="66" x="198.5" y="76.7285">AddUserUI</text><rect fill="#E3E3E3" height="51.2422" rx="2.5" ry="2.5" style="stroke:#181818;stroke-width:0.5;" width="109" x="177" y="992.6816"/><text fill="#000000" font-family="FG Virgil" font-size="14" font-style="italic" lengthAdjust="spacing" textLength="95" x="184" y="1014.7891">&#171;presentation&#187;</text><text fill="#000000" font-family="FG Virgil" font-size="14" lengthAdjust="spacing" textLength="66" x="198.5" y="1033.4102">AddUserUI</text><rect fill="#E3E3E3" height="51.2422" rx="2.5" ry="2.5" style="stroke:#181818;stroke-width:0.5;" width="130" x="349.5" y="36"/><text fill="#000000" font-family="FG Virgil" font-size="14" font-style="italic" lengthAdjust="spacing" textLength="84" x="372.5" y="58.1074">&#171;application&#187;</text><text fill="#000000" font-family="FG Virgil" font-size="14" lengthAdjust="spacing" textLength="116" x="356.5" y="76.7285">AddUserController</text><rect fill="#E3E3E3" height="51.2422" rx="2.5" ry="2.5" style="stroke:#181818;stroke-width:0.5;" width="130" x="349.5" y="992.6816"/><text fill="#000000" font-family="FG Virgil" font-size="14" font-style="italic" lengthAdjust="spacing" textLength="84" x="372.5" y="1014.7891">&#171;application&#187;</text><text fill="#000000" font-family="FG Virgil" font-size="14" lengthAdjust="spacing" textLength="116" x="356.5" y="1033.4102">AddUserController</text><rect fill="#E3E3E3" height="51.2422" rx="2.5" ry="2.5" style="stroke:#181818;stroke-width:0.5;" width="133" x="493" y="36"/><text fill="#000000" font-family="FG Virgil" font-size="14" font-style="italic" lengthAdjust="spacing" textLength="59" x="530" y="58.1074">&#171;builder&#187;</text><text fill="#000000" font-family="FG Virgil" font-size="14" lengthAdjust="spacing" textLength="119" x="500" y="76.7285">SystemUserBuilder</text><rect fill="#E3E3E3" height="51.2422" rx="2.5" ry="2.5" style="stroke:#181818;stroke-width:0.5;" width="133" x="493" y="992.6816"/><text fill="#000000" font-family="FG Virgil" font-size="14" font-style="italic" lengthAdjust="spacing" textLength="59" x="530" y="1014.7891">&#171;builder&#187;</text><text fill="#000000" font-family="FG Virgil" font-size="14" lengthAdjust="spacing" textLength="119" x="500" y="1033.4102">SystemUserBuilder</text><rect fill="#E3E3E3" height="51.2422" rx="2.5" ry="2.5" style="stroke:#181818;stroke-width:0.5;" width="121" x="681" y="36"/><text fill="#000000" font-family="FG Virgil" font-size="14" font-style="italic" lengthAdjust="spacing" textLength="62" x="710.5" y="58.1074">&#171;domain&#187;</text><text fill="#000000" font-family="FG Virgil" font-size="14" lengthAdjust="spacing" textLength="107" x="688" y="76.7285">user:SystemUser</text><rect fill="#E3E3E3" height="51.2422" rx="2.5" ry="2.5" style="stroke:#181818;stroke-width:0.5;" width="121" x="681" y="992.6816"/><text fill="#000000" font-family="FG Virgil" font-size="14" font-style="italic" lengthAdjust="spacing" textLength="62" x="710.5" y="1014.7891">&#171;domain&#187;</text><text fill="#000000" font-family="FG Virgil" font-size="14" lengthAdjust="spacing" textLength="107" x="688" y="1033.4102">user:SystemUser</text><rect fill="#E3E3E3" height="51.2422" rx="2.5" ry="2.5" style="stroke:#181818;stroke-width:0.5;" width="136" x="812" y="36"/><text fill="#000000" font-family="FG Virgil" font-size="14" font-style="italic" lengthAdjust="spacing" textLength="89" x="835.5" y="58.1074">&#171;persistence&#187;</text><text fill="#000000" font-family="FG Virgil" font-size="14" lengthAdjust="spacing" textLength="122" x="819" y="76.7285">PersistenceContext</text><rect fill="#E3E3E3" height="51.2422" rx="2.5" ry="2.5" style="stroke:#181818;stroke-width:0.5;" width="136" x="812" y="992.6816"/><text fill="#000000" font-family="FG Virgil" font-size="14" font-style="italic" lengthAdjust="spacing" textLength="89" x="835.5" y="1014.7891">&#171;persistence&#187;</text><text fill="#000000" font-family="FG Virgil" font-size="14" lengthAdjust="spacing" textLength="122" x="819" y="1033.4102">PersistenceContext</text><rect fill="#E3E3E3" height="51.2422" rx="2.5" ry="2.5" style="stroke:#181818;stroke-width:0.5;" width="130" x="958" y="36"/><text fill="#000000" font-family="FG Virgil" font-size="14" font-style="italic" lengthAdjust="spacing" textLength="59" x="993.5" y="58.1074">&#171;factory&#187;</text><text fill="#000000" font-family="FG Virgil" font-size="14" lengthAdjust="spacing" textLength="116" x="965" y="76.7285">RepositoryFactory</text><rect fill="#E3E3E3" height="51.2422" rx="2.5" ry="2.5" style="stroke:#181818;stroke-width:0.5;" width="130" x="958" y="992.6816"/><text fill="#000000" font-family="FG Virgil" font-size="14" font-style="italic" lengthAdjust="spacing" textLength="59" x="993.5" y="1014.7891">&#171;factory&#187;</text><text fill="#000000" font-family="FG Virgil" font-size="14" lengthAdjust="spacing" textLength="116" x="965" y="1033.4102">RepositoryFactory</text><text fill="#000000" font-family="FG Virgil" font-size="14" font-style="italic" lengthAdjust="spacing" textLength="79" x="1107" y="66.1074">&#171;repository&#187;</text><text fill="#000000" font-family="FG Virgil" font-size="14" lengthAdjust="spacing" textLength="97" x="1098" y="84.7285">UserRepository</text><path d="M1131.5,15 C1131.5,5 1149.5,5 1149.5,5 C1149.5,5 1167.5,5 1167.5,15 L1167.5,41 C1167.5,51 1149.5,51 1149.5,51 C1149.5,51 1131.5,51 1131.5,41 L1131.5,15 " fill="#E3E3E3" style="stroke:#181818;stroke-width:1.5;"/><path d="M1131.5,15 C1131.5,25 1149.5,25 1149.5,25 C1149.5,25 1167.5,25 1167.5,15 " fill="none" style="stroke:#181818;stroke-width:1.5;"/><text fill="#000000" font-family="FG Virgil" font-size="14" font-style="italic" lengthAdjust="spacing" textLength="79" x="1107" y="1007.7891">&#171;repository&#187;</text><text fill="#000000" font-family="FG Virgil" font-size="14" lengthAdjust="spacing" textLength="97" x="1098" y="1026.4102">UserRepository</text><path d="M1131.5,1039.9238 C1131.5,1029.9238 1149.5,1029.9238 1149.5,1029.9238 C1149.5,1029.9238 1167.5,1029.9238 1167.5,1039.9238 L1167.5,1065.9238 C1167.5,1075.9238 1149.5,1075.9238 1149.5,1075.9238 C1149.5,1075.9238 1131.5,1075.9238 1131.5,1065.9238 L1131.5,1039.9238 " fill="#E3E3E3" style="stroke:#181818;stroke-width:1.5;"/><path d="M1131.5,1039.9238 C1131.5,1049.9238 1149.5,1049.9238 1149.5,1049.9238 C1149.5,1049.9238 1167.5,1049.9238 1167.5,1039.9238 " fill="none" style="stroke:#181818;stroke-width:1.5;"/><rect fill="#FFFFFF" height="854.1484" style="stroke:#181818;stroke-width:1.0;" width="10" x="226.5" y="121.5332"/><rect fill="#FFFFFF" height="567.2383" style="stroke:#181818;stroke-width:1.0;" width="10" x="409.5" y="377.1523"/><rect fill="#FFFFFF" height="111.1641" style="stroke:#181818;stroke-width:1.0;" width="10" x="554.5" y="545.6074"/><rect fill="#FFFFFF" height="99.873" style="stroke:#181818;stroke-width:1.0;" width="10" x="875" y="688.0625"/><rect fill="#FFFFFF" height="62.582" style="stroke:#181818;stroke-width:1.0;" width="10" x="1018" y="819.2266"/><polygon fill="#181818" points="214.5,117.5332,224.5,121.5332,214.5,125.5332,218.5,121.5332" style="stroke:#181818;stroke-width:1.0;"/><line style="stroke:#181818;stroke-width:1.0;stroke-dasharray:2.0,2.0;" x1="42.5" x2="220.5" y1="121.5332" y2="121.5332"/><text fill="#000000" font-family="FG Virgil" font-size="13" lengthAdjust="spacing" textLength="54" x="49.5" y="116.2705">Add User</text><polygon fill="#181818" points="402.5,148.8242,412.5,152.8242,402.5,156.8242,406.5,152.8242" style="stroke:#181818;stroke-width:1.0;"/><line style="stroke:#181818;stroke-width:1.0;" x1="236.5" x2="408.5" y1="152.8242" y2="152.8242"/><text fill="#000000" font-family="FG Virgil" font-size="13" lengthAdjust="spacing" textLength="36" x="243.5" y="147.5615">create</text><polygon fill="#181818" points="53.5,180.1152,43.5,184.1152,53.5,188.1152,49.5,184.1152" style="stroke:#181818;stroke-width:1.0;"/><line style="stroke:#181818;stroke-width:1.0;stroke-dasharray:2.0,2.0;" x1="47.5" x2="225.5" y1="184.1152" y2="184.1152"/><text fill="#000000" font-family="FG Virgil" font-size="13" lengthAdjust="spacing" textLength="119" x="59.5" y="178.8525">Ask user information</text><polygon fill="#181818" points="214.5,211.4063,224.5,215.4063,214.5,219.4063,218.5,215.4063" style="stroke:#181818;stroke-width:1.0;"/><line style="stroke:#181818;stroke-width:1.0;stroke-dasharray:2.0,2.0;" x1="42.5" x2="220.5" y1="215.4063" y2="215.4063"/><text fill="#000000" font-family="FG Virgil" font-size="13" lengthAdjust="spacing" textLength="160" x="49.5" y="210.1436">fullName, E-Mail, Password</text><path d="M10,230.4063 L83,230.4063 L83,239.6973 L73,249.6973 L10,249.6973 L10,230.4063 " fill="#EEEEEE" style="stroke:#000000;stroke-width:1.5;"/><rect fill="none" height="99.1641" style="stroke:#000000;stroke-width:1.5;" width="286" x="10" y="230.4063"/><text fill="#000000" font-family="FG Virgil" font-size="13" font-weight="bold" lengthAdjust="spacing" textLength="28" x="25" y="245.4346">loop</text><text fill="#000000" font-family="FG Virgil" font-size="11" font-weight="bold" lengthAdjust="spacing" textLength="64" x="98" y="244.2764">[option != 0]</text><polygon fill="#181818" points="53.5,286.2793,43.5,290.2793,53.5,294.2793,49.5,290.2793" style="stroke:#181818;stroke-width:1.0;"/><line style="stroke:#181818;stroke-width:1.0;stroke-dasharray:2.0,2.0;" x1="47.5" x2="225.5" y1="290.2793" y2="290.2793"/><text fill="#000000" font-family="FG Virgil" font-size="13" lengthAdjust="spacing" textLength="57" x="59.5" y="267.7256">Show List</text><text fill="#000000" font-family="FG Virgil" font-size="13" lengthAdjust="spacing" textLength="79" x="59.5" y="285.0166">of Role Types</text><polygon fill="#181818" points="214.5,317.5703,224.5,321.5703,214.5,325.5703,218.5,321.5703" style="stroke:#181818;stroke-width:1.0;"/><line style="stroke:#181818;stroke-width:1.0;stroke-dasharray:2.0,2.0;" x1="42.5" x2="220.5" y1="321.5703" y2="321.5703"/><text fill="#000000" font-family="FG Virgil" font-size="13" lengthAdjust="spacing" textLength="58" x="49.5" y="316.3076">Role Type</text><polygon fill="#181818" points="397.5,373.1523,407.5,377.1523,397.5,381.1523,401.5,377.1523" style="stroke:#181818;stroke-width:1.0;"/><line style="stroke:#181818;stroke-width:1.0;" x1="236.5" x2="403.5" y1="377.1523" y2="377.1523"/><text fill="#000000" font-family="FG Virgil" font-size="13" lengthAdjust="spacing" textLength="150" x="243.5" y="354.5986">addUser(email, password,</text><text fill="#000000" font-family="FG Virgil" font-size="13" lengthAdjust="spacing" textLength="90" x="243.5" y="371.8896">fullName, roles)</text><path d="M564,390.1523 L564,417.1523 L1069,417.1523 L1069,400.1523 L1059,390.1523 L564,390.1523 " fill="#FAFAFA" style="stroke:#181818;stroke-width:0.5;"/><path d="M1059,390.1523 L1059,400.1523 L1069,400.1523 L1059,390.1523 " fill="#FAFAFA" style="stroke:#181818;stroke-width:0.5;"/><text fill="#000000" font-family="FG Virgil" font-size="13" lengthAdjust="spacing" textLength="484" x="570" y="409.1807">SystemUserBuilder &#233; usado para criar uma entidade do tipo User num estado v&#225;lido</text><polygon fill="#181818" points="547.5,441.7344,557.5,445.7344,547.5,449.7344,551.5,445.7344" style="stroke:#181818;stroke-width:1.0;"/><line style="stroke:#181818;stroke-width:1.0;" x1="419.5" x2="553.5" y1="445.7344" y2="445.7344"/><text fill="#000000" font-family="FG Virgil" font-size="13" lengthAdjust="spacing" textLength="36" x="426.5" y="440.4717">create</text><polygon fill="#181818" points="547.5,473.0254,557.5,477.0254,547.5,481.0254,551.5,477.0254" style="stroke:#181818;stroke-width:1.0;"/><line style="stroke:#181818;stroke-width:1.0;" x1="419.5" x2="553.5" y1="477.0254" y2="477.0254"/><text fill="#000000" font-family="FG Virgil" font-size="13" lengthAdjust="spacing" textLength="116" x="426.5" y="471.7627">setEmail(username)</text><path d="M424,490.0254 L424,517.0254 L616,517.0254 L616,500.0254 L606,490.0254 L424,490.0254 " fill="#FAFAFA" style="stroke:#181818;stroke-width:0.5;"/><path d="M606,490.0254 L606,500.0254 L616,500.0254 L606,490.0254 " fill="#FAFAFA" style="stroke:#181818;stroke-width:0.5;"/><text fill="#000000" font-family="FG Virgil" font-size="13" lengthAdjust="spacing" textLength="171" x="430" y="509.0537">Set the rest of the information</text><polygon fill="#181818" points="542.5,541.6074,552.5,545.6074,542.5,549.6074,546.5,545.6074" style="stroke:#181818;stroke-width:1.0;"/><line style="stroke:#181818;stroke-width:1.0;" x1="419.5" x2="548.5" y1="545.6074" y2="545.6074"/><text fill="#000000" font-family="FG Virgil" font-size="13" lengthAdjust="spacing" textLength="71" x="426.5" y="540.3447">createUser()</text><polygon fill="#181818" points="729.5,590.1895,739.5,594.1895,729.5,598.1895,733.5,594.1895" style="stroke:#181818;stroke-width:1.0;"/><line style="stroke:#181818;stroke-width:1.0;" x1="564.5" x2="735.5" y1="594.1895" y2="594.1895"/><text fill="#000000" font-family="FG Virgil" font-size="13" lengthAdjust="spacing" textLength="70" x="571.5" y="571.6357">build (email,</text><text fill="#000000" font-family="FG Virgil" font-size="13" lengthAdjust="spacing" textLength="153" x="571.5" y="588.9268">password, fullName, roles)</text><polygon fill="#181818" points="575.5,621.4805,565.5,625.4805,575.5,629.4805,571.5,625.4805" style="stroke:#181818;stroke-width:1.0;"/><line style="stroke:#181818;stroke-width:1.0;" x1="569.5" x2="740.5" y1="625.4805" y2="625.4805"/><text fill="#000000" font-family="FG Virgil" font-size="13" lengthAdjust="spacing" textLength="25" x="581.5" y="620.2178">user</text><polygon fill="#181818" points="430.5,652.7715,420.5,656.7715,430.5,660.7715,426.5,656.7715" style="stroke:#181818;stroke-width:1.0;"/><line style="stroke:#181818;stroke-width:1.0;" x1="424.5" x2="558.5" y1="656.7715" y2="656.7715"/><text fill="#000000" font-family="FG Virgil" font-size="13" lengthAdjust="spacing" textLength="25" x="436.5" y="651.5088">user</text><polygon fill="#181818" points="863,684.0625,873,688.0625,863,692.0625,867,688.0625" style="stroke:#181818;stroke-width:1.0;"/><line style="stroke:#181818;stroke-width:1.0;" x1="419.5" x2="869" y1="688.0625" y2="688.0625"/><text fill="#000000" font-family="FG Virgil" font-size="13" lengthAdjust="spacing" textLength="75" x="426.5" y="682.7998">repositories()</text><path d="M890,701.0625 L890,728.0625 L1154,728.0625 L1154,711.0625 L1144,701.0625 L890,701.0625 " fill="#FAFAFA" style="stroke:#181818;stroke-width:0.5;"/><path d="M1144,701.0625 L1144,711.0625 L1154,711.0625 L1144,701.0625 " fill="#FAFAFA" style="stroke:#181818;stroke-width:0.5;"/><text fill="#000000" font-family="FG Virgil" font-size="13" lengthAdjust="spacing" textLength="243" x="896" y="720.0908">pode criar reposit&#243;rio em mem&#243;ria ou JPA</text><polygon fill="#181818" points="1011,752.6445,1021,756.6445,1011,760.6445,1015,756.6445" style="stroke:#181818;stroke-width:1.0;"/><line style="stroke:#181818;stroke-width:1.0;" x1="885" x2="1017" y1="756.6445" y2="756.6445"/><text fill="#000000" font-family="FG Virgil" font-size="13" lengthAdjust="spacing" textLength="36" x="892" y="751.3818">create</text><polygon fill="#181818" points="430.5,783.9355,420.5,787.9355,430.5,791.9355,426.5,787.9355" style="stroke:#181818;stroke-width:1.0;"/><line style="stroke:#181818;stroke-width:1.0;" x1="424.5" x2="879" y1="787.9355" y2="787.9355"/><text fill="#000000" font-family="FG Virgil" font-size="13" lengthAdjust="spacing" textLength="39" x="436.5" y="782.6729">factory</text><polygon fill="#181818" points="1006,815.2266,1016,819.2266,1006,823.2266,1010,819.2266" style="stroke:#181818;stroke-width:1.0;"/><line style="stroke:#181818;stroke-width:1.0;" x1="419.5" x2="1012" y1="819.2266" y2="819.2266"/><text fill="#000000" font-family="FG Virgil" font-size="13" lengthAdjust="spacing" textLength="40" x="426.5" y="813.9639">users()</text><polygon fill="#181818" points="1137.5,846.5176,1147.5,850.5176,1137.5,854.5176,1141.5,850.5176" style="stroke:#181818;stroke-width:1.0;"/><line style="stroke:#181818;stroke-width:1.0;" x1="1028" x2="1143.5" y1="850.5176" y2="850.5176"/><text fill="#000000" font-family="FG Virgil" font-size="13" lengthAdjust="spacing" textLength="36" x="1035" y="845.2549">create</text><polygon fill="#181818" points="430.5,877.8086,420.5,881.8086,430.5,885.8086,426.5,881.8086" style="stroke:#181818;stroke-width:1.0;"/><line style="stroke:#181818;stroke-width:1.0;" x1="424.5" x2="1022" y1="881.8086" y2="881.8086"/><text fill="#000000" font-family="FG Virgil" font-size="13" lengthAdjust="spacing" textLength="87" x="436.5" y="876.5459">userRepository</text><polygon fill="#181818" points="1137.5,909.0996,1147.5,913.0996,1137.5,917.0996,1141.5,913.0996" style="stroke:#181818;stroke-width:1.0;"/><line style="stroke:#181818;stroke-width:1.0;" x1="419.5" x2="1143.5" y1="913.0996" y2="913.0996"/><text fill="#000000" font-family="FG Virgil" font-size="13" lengthAdjust="spacing" textLength="59" x="426.5" y="907.8369">save(user)</text><polygon fill="#181818" points="247.5,940.3906,237.5,944.3906,247.5,948.3906,243.5,944.3906" style="stroke:#181818;stroke-width:1.0;"/><line style="stroke:#181818;stroke-width:1.0;" x1="241.5" x2="413.5" y1="944.3906" y2="944.3906"/><text fill="#000000" font-family="FG Virgil" font-size="13" lengthAdjust="spacing" textLength="25" x="253.5" y="939.1279">user</text><polygon fill="#181818" points="53.5,971.6816,43.5,975.6816,53.5,979.6816,49.5,975.6816" style="stroke:#181818;stroke-width:1.0;"/><line style="stroke:#181818;stroke-width:1.0;stroke-dasharray:2.0,2.0;" x1="47.5" x2="230.5" y1="975.6816" y2="975.6816"/><text fill="#000000" font-family="FG Virgil" font-size="13" lengthAdjust="spacing" textLength="88" x="59.5" y="970.4189">displayUserInfo</text><!--SRC=[ZLPBRjim4Dth5DDiOWDnqhMX6aZRk72H5a7IT9KD8z4M4OeKI2gkZzDbrpr2BjOPIg8eMqQjXK5gtflFut3ayyAvQdvrLKccN5tAoqoNL_P5g8ePLbuMhfH9s4B1LBurmZckOCsavP6jr4fdXT4b1sVgs5Anx8Lj-8FRIGw6PowovNpDQkcMMhdl3AdBB_1Jc8s8ezg2vNehrAQDcR3CQGFNUIaKC0lNj4qGwqGcAgm3JVcZvUPnHMRyJTFASCkLOqvejLYCWJzX2aPBoGsHebsQiggI8XlZFkoiuoNHFzP2vWstMwRfSxFQ8vtLY9_tr3CYVTObmtBIDFUBFSeTDrOWNcMSCkE_776YjrHYlzjZt_DAMu4YxPPUkXsHksMQhfiLadBcs3Ep72YjdaNmQ9Uc9coGb7ZzOJPReDHpajFJwPJ4AtFeR9K0FdWE2Ec5dKDcEDg34QtU5VgmBq0YWL1hRKgll8SDGwrhAQbhBk1czeq9UG5tpDgjDddYqLBh2dH5R7Zt0TxxbuVH7WgzXLkKxadfDTnhxD8VkuhR01z63G1lvweDTbWUQnfhmakVMzNcTW5FgiySmTnElOSWMEyafA0qlZTYKpZ07DiEcn-stziV50wl2z3LGO45Cr2N3DDq8cSv1pGvKMb_HA3g4hXrX7zz-or5haF0w09WMLt0-CYEeontDrJpXCvGOPdJv4WXiLmFt84hQ49ORwDrVFx1nVdHgDtnJpgjfoUGbi9OFtmcwsvr2ksMjIp9JYSrilY6E0LEhMOdROlyH_JcP7p3zQv3IxMeOA2dwnbqqaoVEVY11Mt7Fgc-PKSRjdiQzcmHkeJE_LYewCW7i9mV97kaucZipI6C8e5AZHGUWGSP3VjmuBBIU4-QgzDwV_jhX0QE7pbUqfg1hk7htVN0OpoDCSjslXvScH5eV0lQOJmcIrpA4Mb2K99sL8_bddzwkay1EkZ7_6ZY4J9EkXvyBiPoxyAEv3rRH44jU-L-R4n7aJH_GzT4xgE96GrvdDZjYC-5nNyuExeTAnmfIKHzNFq3]--></g></svg>